<svg version="1.1" id="Layer_1" xmlns="http://www.w3.org/2000/svg" xmlns:xlink="http://www.w3.org/1999/xlink" x="0px" y="0px"
	 width="100%" viewBox="0 0 1000 350" enable-background="new 0 0 1000 350" xml:space="preserve">
<path fill="#000000" opacity="1.000000" stroke="none" 
	d="
M1.000000,150.000000 
	C1.000000,100.341270 1.000000,50.682541 1.000000,1.017858 
	C334.272125,1.011905 667.544250,1.011905 1000.908203,1.011905 
	C1000.908203,117.586761 1000.908203,234.173615 1000.908203,350.880249 
	C667.666687,350.880249 334.333344,350.880249 1.000000,350.880249 
	C1.000000,296.908020 1.000000,242.916641 1.246988,188.122406 
	C3.648147,191.135895 5.870719,194.915512 7.943345,198.775635 
	C13.602601,209.315521 21.393053,217.793365 32.249947,222.996338 
	C47.711433,230.405945 64.040237,229.777100 79.917587,225.592133 
	C86.689323,223.807205 94.910980,221.220993 98.343056,213.891556 
	C102.233337,205.583572 104.814339,196.660629 107.897110,187.981094 
	C108.079712,187.466980 107.686142,186.733414 107.520386,186.112717 
	C106.011688,180.463303 104.668686,174.760345 102.886765,169.198135 
	C102.240181,167.179840 100.538727,165.499481 99.318588,163.664948 
	C98.877434,163.905441 98.436287,164.145950 97.995132,164.386444 
	C97.995132,168.623505 97.995132,172.860565 97.995132,176.824371 
	C96.613472,176.531219 95.495651,176.294037 94.600044,176.104004 
	C91.755829,187.846359 86.195747,197.361115 74.665939,200.771973 
	C61.789436,204.581207 49.858040,201.747437 39.624687,192.271027 
	C32.893543,186.037781 27.912127,178.977615 30.404406,169.781342 
	C32.283680,162.847031 35.905567,156.195450 39.757584,150.048279 
	C42.583954,145.537857 46.372536,140.018646 50.908840,138.526901 
	C60.361805,135.418396 69.236458,129.314102 80.039757,130.921356 
	C83.699669,131.465836 84.924568,129.623520 83.051941,126.109009 
	C82.449005,124.977409 82.363174,123.570290 81.888206,121.682930 
	C86.760117,123.442162 91.531563,124.029526 94.640266,126.615646 
	C97.589821,129.069366 98.798218,133.616089 100.772285,137.242416 
	C101.765984,132.940582 102.613167,128.900711 101.610390,125.389114 
	C98.334320,113.916748 85.806046,105.115364 73.701195,104.994125 
	C64.311333,104.900078 54.966122,104.711166 45.877483,107.947571 
	C35.795082,111.537849 26.034000,115.940277 18.380272,123.377029 
	C11.344810,130.213043 6.195853,138.686188 3.010381,148.154968 
	C2.717671,149.025040 2.107752,149.788406 1.645127,150.601318 
	C1.430084,150.400879 1.215042,150.200439 1.000000,150.000000 
M310.073975,183.596436 
	C319.044617,168.146637 328.015289,152.696838 337.265869,136.764969 
	C339.471985,144.406189 341.306763,151.111893 343.348083,157.754120 
	C346.926483,169.397873 351.770782,180.796082 353.927673,192.688385 
	C355.694061,202.427689 362.242584,208.529205 368.339508,213.778183 
	C372.707245,217.538498 377.853180,219.768646 379.595276,225.896164 
	C379.743408,226.417130 381.640717,226.843353 382.526031,226.596985 
	C383.034454,226.455490 383.466461,224.832809 383.362000,223.943985 
	C383.135986,222.020569 382.242432,220.153976 382.155304,218.239853 
	C381.885742,212.317871 379.135925,206.895660 382.624695,200.380249 
	C395.270233,176.764343 406.904388,152.608887 419.097504,128.747620 
	C423.191284,120.736336 424.698730,112.375633 423.954376,103.526215 
	C423.866150,102.476967 423.163208,100.570518 422.820618,100.587425 
	C417.390411,100.855682 416.414642,95.769562 413.588104,93.019646 
	C410.771332,90.279160 408.234222,89.969772 405.568176,92.975014 
	C404.270752,94.437469 402.793640,95.839981 401.885071,97.531349 
	C397.170349,106.308403 392.697449,115.215378 387.981262,123.991631 
	C380.233856,138.408554 375.935822,153.894028 373.378448,170.026794 
	C371.020233,157.984039 369.435883,145.854004 366.819305,133.950867 
	C362.883514,116.046364 362.045959,97.881561 361.024078,79.707085 
	C360.833344,76.315102 362.022675,72.179214 356.130096,72.866211 
	C355.711212,72.915047 355.051056,71.842812 354.679535,71.191238 
	C352.648346,67.628708 350.672363,64.034698 348.479065,60.095337 
	C348.552826,60.082912 347.671906,59.959068 347.307587,60.335381 
	C344.170624,63.575344 340.701324,65.906548 336.045227,66.695763 
	C334.800720,66.906700 333.435425,69.653839 333.120361,71.414627 
	C332.489044,74.942947 333.591919,79.100845 332.137329,82.108093 
	C325.330994,96.179718 317.835266,109.916100 310.706940,123.834267 
	C303.715759,137.484695 296.461700,151.022247 290.069733,164.951996 
	C282.884491,180.610535 277.010040,196.880753 269.555573,212.399826 
	C267.064819,217.585159 265.936310,222.331177 265.905945,227.827866 
	C265.886902,231.263748 264.891052,234.687271 264.467407,238.132812 
	C264.362854,238.983246 264.493805,240.138138 265.002991,240.744751 
	C268.934784,245.428955 266.205811,249.145157 263.530975,253.028503 
	C262.636749,254.326752 262.304901,256.012360 261.715973,257.520874 
	C262.150787,257.833252 262.585571,258.145599 263.020355,258.457977 
	C264.477325,257.334259 266.393524,256.502045 267.320435,255.041870 
	C276.920837,239.918594 286.491638,224.773041 295.794647,209.465881 
	C300.784027,201.256317 305.236664,192.720505 310.073975,183.596436 
M120.082832,182.555344 
	C118.694794,185.514359 117.439018,188.544495 115.893341,191.418732 
	C111.636429,199.334641 110.391060,207.285095 115.060745,215.469620 
	C121.372192,214.219391 123.223396,215.724457 126.758659,225.105148 
	C128.114258,224.908066 130.046829,225.223007 130.894211,224.408707 
	C137.092224,218.452560 144.899826,220.515701 152.072235,220.148666 
	C158.491165,219.820206 164.972321,220.970520 171.422409,220.927490 
	C181.350586,220.861267 191.277435,220.058197 201.201263,220.122467 
	C205.762909,220.152023 209.497147,218.852875 211.951187,215.406067 
	C216.453644,209.082108 220.662857,202.517731 224.560898,195.802002 
	C231.490585,183.863159 236.905487,171.313171 240.713989,157.934296 
	C245.018555,142.812805 250.511505,128.030746 255.384140,113.067360 
	C255.729019,112.008202 255.359909,110.639229 255.085159,109.470161 
	C254.272079,106.010414 250.360825,103.244911 252.806686,98.996048 
	C252.982849,98.690025 252.007629,97.695778 251.534622,97.045631 
	C248.585449,92.992073 246.455643,88.893906 251.058853,84.487358 
	C248.488235,82.460365 246.639511,82.059486 244.894318,85.224617 
	C242.065216,90.355522 238.599319,95.153755 236.000092,100.389229 
	C230.127945,112.217087 224.533813,124.185898 218.986450,136.171371 
	C210.913391,153.613770 203.010086,171.134766 194.921555,188.569916 
	C194.399536,189.695145 192.911972,190.372421 191.873550,191.258087 
	C191.505692,190.869949 191.137833,190.481827 190.769958,190.093704 
	C192.845474,184.666611 195.354126,179.360214 196.907013,173.787491 
	C200.219391,161.900742 201.791199,149.361542 206.455368,138.072662 
	C210.095505,129.262283 204.886154,123.272530 203.423553,116.145554 
	C202.580078,112.035477 198.996246,108.326141 204.471207,104.630814 
	C199.350845,101.049339 197.436142,105.527473 196.186050,107.883064 
	C188.861542,121.685059 181.961472,135.713455 174.988037,149.700287 
	C167.273666,165.173233 159.669693,180.701447 151.877701,196.134949 
	C151.391998,197.096954 149.688217,197.443985 148.203568,198.270676 
	C151.370331,190.141083 154.630096,183.034164 156.913910,175.626373 
	C160.733810,163.236176 163.961014,150.662109 167.344635,138.140274 
	C167.700302,136.824036 168.028046,134.876160 167.354523,134.009430 
	C163.609131,129.189606 166.172592,122.225525 161.460892,117.621437 
	C160.378555,116.563812 161.188263,113.494530 161.263138,111.355789 
	C161.309402,110.034256 161.612503,108.721710 161.800278,107.405121 
	C160.367447,107.938705 158.758759,108.225578 157.556458,109.082596 
	C156.563187,109.790596 155.934860,111.113136 155.342087,112.264900 
	C147.567795,127.370522 139.746643,142.452972 132.113968,157.630112 
	C128.083176,165.645096 124.396202,173.832977 120.082832,182.555344 
M535.180542,105.693779 
	C518.204285,105.693779 501.228027,105.693779 484.107635,105.693779 
	C484.876984,99.948669 487.196472,98.295769 492.578979,97.959679 
	C500.922852,97.438698 509.308960,97.053047 517.565308,95.845367 
	C523.963196,94.909531 530.121094,92.370819 536.514465,91.354507 
	C541.724182,90.526337 546.279724,89.540489 549.115662,84.485809 
	C550.719482,81.627228 552.917480,79.092674 554.935608,76.479950 
	C555.900513,75.230675 557.059143,74.129173 558.149536,72.979195 
	C559.061768,72.017143 560.002258,71.081871 560.930237,70.134705 
	C559.579041,69.425117 558.285767,68.295670 556.863708,68.099228 
	C554.411499,67.760490 551.878723,67.970009 549.380493,68.004997 
	C525.728638,68.336182 502.041962,67.270226 478.168884,68.657272 
	C478.064636,66.900711 477.893707,64.021065 477.624298,59.482807 
	C474.437134,62.084366 471.701477,63.489651 470.191254,65.723434 
	C467.103210,70.291077 464.438080,75.189201 462.018555,80.155716 
	C455.550690,93.432289 449.118744,106.732597 443.020111,120.181129 
	C436.240814,135.130768 430.246277,150.445160 423.198303,165.262207 
	C409.396088,194.278732 395.497711,223.266525 380.711670,251.785370 
	C377.270660,258.422241 377.547211,264.135193 379.368256,270.151825 
	C380.151428,272.739380 380.448151,274.267181 379.251099,276.625946 
	C378.760376,277.592896 380.133057,279.505524 380.658112,280.987946 
	C383.726776,279.413208 387.776642,280.160522 390.076447,276.699036 
	C406.226074,252.391678 417.855743,225.516800 433.928772,201.060867 
	C446.667084,181.678879 456.204010,160.185699 467.014587,139.552490 
	C468.455811,136.801743 470.127869,135.833740 473.178650,135.929977 
	C480.188690,136.151169 487.210724,136.033325 494.227234,135.975021 
	C495.858154,135.961472 497.516174,135.774368 499.111115,135.431519 
	C508.963257,133.313736 518.733398,130.710312 528.666077,129.106552 
	C535.794495,127.955589 539.700195,123.100395 543.810425,118.299599 
	C546.491028,115.168686 548.645691,111.587448 551.483826,107.574646 
	C551.085144,107.364990 549.841858,106.200554 548.528137,106.114830 
	C544.364807,105.843155 540.175049,105.974380 535.180542,105.693779 
M709.039307,199.447601 
	C694.772949,213.384705 680.696289,227.525253 666.114075,241.123627 
	C662.204590,244.769363 658.949463,248.450684 656.289917,253.084396 
	C651.122803,262.087280 647.499939,272.219238 638.749817,278.818237 
	C638.012024,279.374664 637.189880,280.318359 637.099609,281.156708 
	C636.221069,289.314819 631.106018,294.940125 625.409241,299.914093 
	C620.007263,304.630768 613.915161,308.549530 608.290588,313.025391 
	C607.176514,313.911957 606.807373,315.734680 606.094727,317.125702 
	C606.586548,317.430664 607.078430,317.735626 607.570251,318.040588 
	C612.331726,315.248810 617.097168,312.463837 621.853821,309.663910 
	C635.169189,301.826050 645.756287,290.672302 657.008728,280.380951 
	C673.988708,264.851349 690.430115,248.732361 707.434570,233.230423 
	C714.669861,226.634521 722.511658,220.630539 730.498901,214.949524 
	C743.905396,205.414062 757.412048,196.108673 768.687073,183.917816 
	C776.988220,174.942352 778.194519,167.922592 771.539795,159.298874 
	C770.059998,157.381149 767.366028,155.255753 765.194946,155.216278 
	C756.278992,155.054138 747.346252,155.598145 738.426025,156.018158 
	C735.353455,156.162811 732.299377,156.703217 728.288391,157.174225 
	C741.714417,141.843567 754.232300,127.549973 766.750122,113.256386 
	C766.348816,112.740921 765.947449,112.225456 765.546082,111.709991 
	C761.508850,112.371010 757.471619,113.032036 753.434448,113.693054 
	C755.690979,109.312302 758.599060,106.867638 759.210327,101.860703 
	C759.772644,97.254715 764.404785,93.145599 767.850403,87.893227 
	C765.855896,87.799255 764.649048,87.406227 763.742371,87.767281 
	C761.632690,88.607391 759.427185,89.511253 757.681213,90.913254 
	C740.053101,105.068642 722.473083,119.284828 704.963867,133.587006 
	C699.359619,138.164703 694.270081,143.405441 688.471069,147.703201 
	C681.031860,153.216522 672.828308,157.718262 665.542297,163.408905 
	C662.594971,165.710861 659.787720,169.879196 659.481689,173.419907 
	C659.149658,177.262695 661.380798,181.576096 663.255432,185.301285 
	C665.969421,190.694305 670.180115,194.738693 676.847534,193.945587 
	C687.552734,192.672180 698.229431,191.136078 708.891785,189.535187 
	C714.346436,188.716171 719.743774,187.515610 725.167053,186.487488 
	C725.295044,186.971802 725.422974,187.456116 725.550964,187.940430 
	C720.223083,191.612289 714.895264,195.284149 709.039307,199.447601 
M631.487732,216.008545 
	C633.681824,213.553146 635.990479,211.189789 638.050171,208.626404 
	C646.981079,197.511581 650.437866,184.051849 653.813293,170.643738 
	C654.386047,168.368561 653.505859,165.374557 652.447510,163.109573 
	C649.551147,156.910919 646.227661,150.910080 643.006897,144.866333 
	C642.443970,143.810013 641.747192,142.640778 640.791565,142.008194 
	C634.944275,138.137497 629.043213,134.343063 623.058655,130.689377 
	C622.025085,130.058395 620.506470,130.221909 617.585327,129.762741 
	C621.345032,134.962204 623.147461,139.267242 624.832031,143.754059 
	C629.498352,156.182693 631.395691,167.794205 626.158020,180.623428 
	C619.842224,196.093750 605.634583,206.287689 589.536194,201.718521 
	C583.030273,199.871964 576.800293,195.847900 571.408020,191.593796 
	C564.913330,186.469971 560.425659,179.326477 562.175720,170.529327 
	C563.233948,165.210098 565.523071,159.982086 568.078003,155.145660 
	C573.709900,144.484375 580.849304,135.267441 593.701355,132.629410 
	C595.573364,132.245163 597.241882,130.873520 599.113831,130.483719 
	C603.536316,129.562836 608.019958,128.927689 612.489197,128.244690 
	C613.793030,128.045441 616.025146,128.477615 616.277344,127.918892 
	C616.890198,126.560707 616.882812,124.732399 616.577026,123.203094 
	C616.267395,121.654663 615.299011,120.237946 614.529724,118.569580 
	C617.377808,119.544609 619.541199,120.174164 621.614319,121.023796 
	C624.057922,122.025269 627.103455,122.635529 628.665527,124.461296 
	C631.088196,127.292839 632.476746,131.009201 634.817627,135.290237 
	C635.487854,134.085236 636.890808,132.730377 636.894165,131.372070 
	C636.921143,120.469368 631.944824,111.969292 622.796387,106.506752 
	C612.342407,100.264610 600.811646,100.233978 588.950317,101.864273 
	C575.780945,103.674362 564.628906,109.175934 555.308960,118.306862 
	C546.281433,127.151253 540.408386,138.206909 536.156677,149.926468 
	C531.566833,162.578552 527.633179,175.575363 534.057678,188.908905 
	C536.177856,193.309189 538.469238,197.651657 541.014282,201.817795 
	C548.061646,213.353760 557.727356,221.638596 570.618164,226.371979 
	C580.460022,229.985840 590.499695,228.922791 600.495056,228.922394 
	C612.225647,228.921951 622.436707,224.623947 631.487732,216.008545 
M956.985352,132.522461 
	C960.558533,131.095230 963.958008,130.044479 968.117188,130.817261 
	C972.990784,131.722748 973.756714,130.162186 971.879333,125.596039 
	C971.451477,124.555466 971.292908,123.404121 971.182068,122.972237 
	C974.436462,123.186295 977.489014,122.647667 979.826294,123.699127 
	C984.296936,125.710320 987.137451,129.488876 988.062317,134.538040 
	C988.239990,135.508087 989.201721,136.334534 990.441528,138.179077 
	C992.539368,125.428665 988.231812,117.046486 979.115295,110.475494 
	C968.941956,103.142761 957.168640,103.779808 946.239075,105.416008 
	C929.645325,107.900177 914.415100,114.585495 903.237244,128.214279 
	C895.945190,137.105148 890.611267,147.205063 889.273682,158.394058 
	C887.608276,172.324722 887.984741,186.476074 896.930786,198.676422 
	C897.019775,198.797684 896.959961,199.020981 897.036987,199.158997 
	C902.686218,209.276535 910.227783,217.713379 920.681885,222.811127 
	C936.200684,230.378632 952.776611,230.012650 968.799255,225.647827 
	C979.230713,222.806137 988.930664,217.075180 991.684875,204.757675 
	C992.599731,200.666595 993.441467,196.507675 994.925659,192.611786 
	C996.105835,189.513855 997.089478,186.699188 996.019531,183.360321 
	C994.534424,178.725693 993.498718,173.942337 991.906555,169.348862 
	C991.195679,167.298080 989.598511,165.554535 988.403687,163.671539 
	C987.982422,163.888336 987.561157,164.105118 987.139893,164.321915 
	C987.139893,168.588821 987.139893,172.855713 987.139893,177.068405 
	C985.728516,176.643585 984.603516,176.304962 983.411011,175.946030 
	C981.919373,187.893768 971.878906,200.119293 961.116333,201.727097 
	C949.782593,203.420242 938.927856,201.768631 929.859680,193.468750 
	C922.709839,186.924728 916.756775,179.801865 919.372864,169.492035 
	C921.930542,159.412491 927.523682,150.794937 934.432434,142.936584 
	C940.336670,136.220734 948.806335,135.814651 956.985352,132.522461 
M870.622681,183.999908 
	C866.265442,183.998337 861.903381,183.862762 857.551819,184.018829 
	C840.534912,184.629166 823.523621,185.400406 806.505371,185.964951 
	C800.017029,186.180222 793.497070,186.308289 787.024902,185.920151 
	C779.368591,185.461029 774.832764,190.533936 769.867981,194.862320 
	C769.295532,195.361404 769.912781,197.363785 770.164185,198.632339 
	C770.447449,200.061157 771.477905,201.560806 771.212708,202.826263 
	C770.846863,204.572418 769.430847,206.068848 768.715027,207.777176 
	C766.914551,212.073959 768.191589,214.377472 772.753662,214.975433 
	C776.323303,215.443314 779.947693,216.090057 783.507690,215.901306 
	C789.523865,215.582336 795.516296,214.055649 801.504456,214.133423 
	C812.286743,214.273483 822.736511,212.712708 833.118164,210.075409 
	C840.205811,208.274918 847.553284,204.751587 854.414368,205.481049 
	C863.548950,206.452225 868.016296,200.423416 872.852966,195.966370 
	C876.888672,192.247513 880.230286,189.378815 886.252563,189.315735 
	C885.471741,187.525818 884.540100,185.539215 883.253418,185.273712 
	C879.433716,184.485565 875.474121,184.375229 870.622681,183.999908 
M255.066040,216.634415 
	C260.023224,207.807846 265.195007,199.093262 269.875671,190.122421 
	C274.323120,181.598495 278.527527,172.922577 282.314362,164.088684 
	C284.563232,158.842514 280.946991,153.215271 275.552887,151.903381 
	C274.246307,151.585632 273.108215,150.401367 271.996582,149.488937 
	C268.898346,146.945862 265.854675,144.336304 262.509003,141.516632 
	C259.904877,144.693161 257.531189,147.045135 255.800064,149.800751 
	C250.295883,158.562424 243.451447,166.624252 241.051331,177.069839 
	C238.940811,186.255051 237.423706,195.635330 234.494049,204.551437 
	C232.757278,209.837143 233.016190,213.831970 235.696793,218.548447 
	C238.563507,223.592407 240.455658,229.190231 243.216782,235.571487 
	C244.602554,234.438004 246.467804,233.569061 247.300735,232.110580 
	C250.039703,227.314453 252.404434,222.304611 255.066040,216.634415 
M814.726868,122.378487 
	C813.533569,124.703850 812.540222,127.162231 811.101868,129.324585 
	C808.717773,132.908844 810.183716,135.003357 813.645813,135.922989 
	C816.449402,136.667679 819.456421,136.993546 822.362854,136.940414 
	C831.942017,136.765244 841.578918,136.891022 851.073364,135.827469 
	C858.941101,134.946075 866.650146,132.594971 874.404480,130.787796 
	C876.560059,130.285431 879.669373,130.025543 880.537292,128.575089 
	C883.065369,124.349861 888.501892,122.332100 889.224426,116.734375 
	C889.360657,115.679153 891.370911,114.925186 892.391907,113.907288 
	C893.320007,112.981979 894.078735,111.886688 894.912109,110.866325 
	C893.712341,110.245041 892.515137,109.087601 891.312439,109.081879 
	C868.669189,108.974098 846.024353,108.884979 823.382202,109.074478 
	C816.585999,109.131355 811.955139,116.017616 814.726868,122.378487 
M799.085938,147.386765 
	C795.883606,149.705414 791.273193,152.283020 793.320923,156.524521 
	C795.454529,160.943649 794.005798,164.225845 793.121765,168.096191 
	C792.471191,170.944656 793.307068,173.981323 796.744324,173.876999 
	C808.767761,173.512054 820.824890,173.159897 832.774109,171.900345 
	C838.987183,171.245453 844.941956,167.682724 851.123108,167.324036 
	C856.185608,167.030243 859.004028,164.708847 861.914490,161.559555 
	C864.934326,158.292053 867.959412,155.021851 870.804932,151.605148 
	C871.762634,150.455109 872.176880,148.852478 872.839539,147.456711 
	C871.357910,146.971283 869.881165,146.082932 868.393921,146.065231 
	C858.065491,145.942245 847.732849,146.124130 837.405640,145.958862 
	C829.804504,145.837219 822.206299,145.035019 814.612732,145.113617 
	C809.630127,145.165192 804.658081,146.246033 799.085938,147.386765 
M299.102081,128.565079 
	C302.134338,114.670380 305.444519,100.760788 294.272522,88.547379 
	C293.096680,87.261932 292.459900,85.496246 291.480469,84.014534 
	C290.573975,82.643166 289.543365,81.353851 288.567444,80.028389 
	C287.367889,81.415161 285.794800,82.622108 285.027130,84.216789 
	C278.032928,98.745384 271.179077,113.341530 263.627136,129.306961 
	C266.952301,132.574860 270.608826,136.386841 274.513428,139.925064 
	C276.913513,142.099945 280.044708,143.532318 282.210785,145.884537 
	C284.776184,148.670395 286.612122,147.639603 288.753906,145.746918 
	C293.784271,141.301620 297.341217,135.936386 299.102081,128.565079 
z"/>
<path fill="#0049FF" opacity="1.000000" stroke="none" 
	d="
M1.000000,150.468658 
	C1.215042,150.200439 1.430084,150.400879 1.645127,150.601318 
	C2.107752,149.788406 2.717671,149.025040 3.010381,148.154968 
	C6.195853,138.686188 11.344810,130.213043 18.380272,123.377029 
	C26.034000,115.940277 35.795082,111.537849 45.877483,107.947571 
	C54.966122,104.711166 64.311333,104.900078 73.701195,104.994125 
	C85.806046,105.115364 98.334320,113.916748 101.610390,125.389114 
	C102.613167,128.900711 101.765984,132.940582 100.772285,137.242416 
	C98.798218,133.616089 97.589821,129.069366 94.640266,126.615646 
	C91.531563,124.029526 86.760117,123.442162 81.888206,121.682930 
	C82.363174,123.570290 82.449005,124.977409 83.051941,126.109009 
	C84.924568,129.623520 83.699669,131.465836 80.039757,130.921356 
	C69.236458,129.314102 60.361805,135.418396 50.908840,138.526901 
	C46.372536,140.018646 42.583954,145.537857 39.757584,150.048279 
	C35.905567,156.195450 32.283680,162.847031 30.404406,169.781342 
	C27.912127,178.977615 32.893543,186.037781 39.624687,192.271027 
	C49.858040,201.747437 61.789436,204.581207 74.665939,200.771973 
	C86.195747,197.361115 91.755829,187.846359 94.600044,176.104004 
	C95.495651,176.294037 96.613472,176.531219 97.995132,176.824371 
	C97.995132,172.860565 97.995132,168.623505 97.995132,164.386444 
	C98.436287,164.145950 98.877434,163.905441 99.318588,163.664948 
	C100.538727,165.499481 102.240181,167.179840 102.886765,169.198135 
	C104.668686,174.760345 106.011688,180.463303 107.520386,186.112717 
	C107.686142,186.733414 108.079712,187.466980 107.897110,187.981094 
	C104.814339,196.660629 102.233337,205.583572 98.343056,213.891556 
	C94.910980,221.220993 86.689323,223.807205 79.917587,225.592133 
	C64.040237,229.777100 47.711433,230.405945 32.249947,222.996338 
	C21.393053,217.793365 13.602601,209.315521 7.943345,198.775635 
	C5.870719,194.915512 3.648147,191.135895 1.246988,187.659790 
	C1.000000,175.645767 1.000000,163.291550 1.000000,150.468658 
z"/>
<path fill="#0049FF" opacity="1.000000" stroke="none" 
	d="
M310.002747,183.964172 
	C305.236664,192.720505 300.784027,201.256317 295.794647,209.465881 
	C286.491638,224.773041 276.920837,239.918594 267.320435,255.041870 
	C266.393524,256.502045 264.477325,257.334259 263.020355,258.457977 
	C262.585571,258.145599 262.150787,257.833252 261.715973,257.520874 
	C262.304901,256.012360 262.636749,254.326752 263.530975,253.028503 
	C266.205811,249.145157 268.934784,245.428955 265.002991,240.744751 
	C264.493805,240.138138 264.362854,238.983246 264.467407,238.132812 
	C264.891052,234.687271 265.886902,231.263748 265.905945,227.827866 
	C265.936310,222.331177 267.064819,217.585159 269.555573,212.399826 
	C277.010040,196.880753 282.884491,180.610535 290.069733,164.951996 
	C296.461700,151.022247 303.715759,137.484695 310.706940,123.834267 
	C317.835266,109.916100 325.330994,96.179718 332.137329,82.108093 
	C333.591919,79.100845 332.489044,74.942947 333.120361,71.414627 
	C333.435425,69.653839 334.800720,66.906700 336.045227,66.695763 
	C340.701324,65.906548 344.170624,63.575344 347.307587,60.335381 
	C347.671906,59.959068 348.552826,60.082912 348.479065,60.095337 
	C350.672363,64.034698 352.648346,67.628708 354.679535,71.191238 
	C355.051056,71.842812 355.711212,72.915047 356.130096,72.866211 
	C362.022675,72.179214 360.833344,76.315102 361.024078,79.707085 
	C362.045959,97.881561 362.883514,116.046364 366.819305,133.950867 
	C369.435883,145.854004 371.020233,157.984039 373.378448,170.026794 
	C375.935822,153.894028 380.233856,138.408554 387.981262,123.991631 
	C392.697449,115.215378 397.170349,106.308403 401.885071,97.531349 
	C402.793640,95.839981 404.270752,94.437469 405.568176,92.975014 
	C408.234222,89.969772 410.771332,90.279160 413.588104,93.019646 
	C416.414642,95.769562 417.390411,100.855682 422.820618,100.587425 
	C423.163208,100.570518 423.866150,102.476967 423.954376,103.526215 
	C424.698730,112.375633 423.191284,120.736336 419.097504,128.747620 
	C406.904388,152.608887 395.270233,176.764343 382.624695,200.380249 
	C379.135925,206.895660 381.885742,212.317871 382.155304,218.239853 
	C382.242432,220.153976 383.135986,222.020569 383.362000,223.943985 
	C383.466461,224.832809 383.034454,226.455490 382.526031,226.596985 
	C381.640717,226.843353 379.743408,226.417130 379.595276,225.896164 
	C377.853180,219.768646 372.707245,217.538498 368.339508,213.778183 
	C362.242584,208.529205 355.694061,202.427689 353.927673,192.688385 
	C351.770782,180.796082 346.926483,169.397873 343.348083,157.754120 
	C341.306763,151.111893 339.471985,144.406189 337.265869,136.764969 
	C328.015289,152.696838 319.044617,168.146637 310.002747,183.964172 
z"/>
<path fill="#0049FF" opacity="1.000000" stroke="none" 
	d="
M120.318413,182.249069 
	C124.396202,173.832977 128.083176,165.645096 132.113968,157.630112 
	C139.746643,142.452972 147.567795,127.370522 155.342087,112.264900 
	C155.934860,111.113136 156.563187,109.790596 157.556458,109.082596 
	C158.758759,108.225578 160.367447,107.938705 161.800278,107.405121 
	C161.612503,108.721710 161.309402,110.034256 161.263138,111.355789 
	C161.188263,113.494530 160.378555,116.563812 161.460892,117.621437 
	C166.172592,122.225525 163.609131,129.189606 167.354523,134.009430 
	C168.028046,134.876160 167.700302,136.824036 167.344635,138.140274 
	C163.961014,150.662109 160.733810,163.236176 156.913910,175.626373 
	C154.630096,183.034164 151.370331,190.141083 148.203568,198.270676 
	C149.688217,197.443985 151.391998,197.096954 151.877701,196.134949 
	C159.669693,180.701447 167.273666,165.173233 174.988037,149.700287 
	C181.961472,135.713455 188.861542,121.685059 196.186050,107.883064 
	C197.436142,105.527473 199.350845,101.049339 204.471207,104.630814 
	C198.996246,108.326141 202.580078,112.035477 203.423553,116.145554 
	C204.886154,123.272530 210.095505,129.262283 206.455368,138.072662 
	C201.791199,149.361542 200.219391,161.900742 196.907013,173.787491 
	C195.354126,179.360214 192.845474,184.666611 190.769958,190.093704 
	C191.137833,190.481827 191.505692,190.869949 191.873550,191.258087 
	C192.911972,190.372421 194.399536,189.695145 194.921555,188.569916 
	C203.010086,171.134766 210.913391,153.613770 218.986450,136.171371 
	C224.533813,124.185898 230.127945,112.217087 236.000092,100.389229 
	C238.599319,95.153755 242.065216,90.355522 244.894318,85.224617 
	C246.639511,82.059486 248.488235,82.460365 251.058853,84.487358 
	C246.455643,88.893906 248.585449,92.992073 251.534622,97.045631 
	C252.007629,97.695778 252.982849,98.690025 252.806686,98.996048 
	C250.360825,103.244911 254.272079,106.010414 255.085159,109.470161 
	C255.359909,110.639229 255.729019,112.008202 255.384140,113.067360 
	C250.511505,128.030746 245.018555,142.812805 240.713989,157.934296 
	C236.905487,171.313171 231.490585,183.863159 224.560898,195.802002 
	C220.662857,202.517731 216.453644,209.082108 211.951187,215.406067 
	C209.497147,218.852875 205.762909,220.152023 201.201263,220.122467 
	C191.277435,220.058197 181.350586,220.861267 171.422409,220.927490 
	C164.972321,220.970520 158.491165,219.820206 152.072235,220.148666 
	C144.899826,220.515701 137.092224,218.452560 130.894211,224.408707 
	C130.046829,225.223007 128.114258,224.908066 126.758659,225.105148 
	C123.223396,215.724457 121.372192,214.219391 115.060745,215.469620 
	C110.391060,207.285095 111.636429,199.334641 115.893341,191.418732 
	C117.439018,188.544495 118.694794,185.514359 120.318413,182.249069 
z"/>
<path fill="#0049FF" opacity="1.000000" stroke="none" 
	d="
M535.588013,105.821793 
	C540.175049,105.974380 544.364807,105.843155 548.528137,106.114830 
	C549.841858,106.200554 551.085144,107.364990 551.483826,107.574646 
	C548.645691,111.587448 546.491028,115.168686 543.810425,118.299599 
	C539.700195,123.100395 535.794495,127.955589 528.666077,129.106552 
	C518.733398,130.710312 508.963257,133.313736 499.111115,135.431519 
	C497.516174,135.774368 495.858154,135.961472 494.227234,135.975021 
	C487.210724,136.033325 480.188690,136.151169 473.178650,135.929977 
	C470.127869,135.833740 468.455811,136.801743 467.014587,139.552490 
	C456.204010,160.185699 446.667084,181.678879 433.928772,201.060867 
	C417.855743,225.516800 406.226074,252.391678 390.076447,276.699036 
	C387.776642,280.160522 383.726776,279.413208 380.658112,280.987946 
	C380.133057,279.505524 378.760376,277.592896 379.251099,276.625946 
	C380.448151,274.267181 380.151428,272.739380 379.368256,270.151825 
	C377.547211,264.135193 377.270660,258.422241 380.711670,251.785370 
	C395.497711,223.266525 409.396088,194.278732 423.198303,165.262207 
	C430.246277,150.445160 436.240814,135.130768 443.020111,120.181129 
	C449.118744,106.732597 455.550690,93.432289 462.018555,80.155716 
	C464.438080,75.189201 467.103210,70.291077 470.191254,65.723434 
	C471.701477,63.489651 474.437134,62.084366 477.624298,59.482807 
	C477.893707,64.021065 478.064636,66.900711 478.168884,68.657272 
	C502.041962,67.270226 525.728638,68.336182 549.380493,68.004997 
	C551.878723,67.970009 554.411499,67.760490 556.863708,68.099228 
	C558.285767,68.295670 559.579041,69.425117 560.930237,70.134720 
	C560.002258,71.081871 559.061768,72.017143 558.149536,72.979195 
	C557.059143,74.129173 555.900513,75.230675 554.935608,76.479950 
	C552.917480,79.092674 550.719482,81.627228 549.115662,84.485809 
	C546.279724,89.540489 541.724182,90.526337 536.514465,91.354507 
	C530.121094,92.370819 523.963196,94.909531 517.565308,95.845367 
	C509.308960,97.053047 500.922852,97.438698 492.578979,97.959679 
	C487.196472,98.295769 484.876984,99.948669 484.107635,105.693779 
	C501.228027,105.693779 518.204285,105.693779 535.588013,105.821793 
z"/>
<path fill="#0049FF" opacity="1.000000" stroke="none" 
	d="
M709.303345,199.201813 
	C714.895264,195.284149 720.223083,191.612289 725.550964,187.940430 
	C725.422974,187.456116 725.295044,186.971802 725.167053,186.487488 
	C719.743774,187.515610 714.346436,188.716171 708.891785,189.535187 
	C698.229431,191.136078 687.552734,192.672180 676.847534,193.945587 
	C670.180115,194.738693 665.969421,190.694305 663.255432,185.301285 
	C661.380798,181.576096 659.149658,177.262695 659.481689,173.419907 
	C659.787720,169.879196 662.594971,165.710861 665.542297,163.408905 
	C672.828308,157.718262 681.031860,153.216522 688.471069,147.703201 
	C694.270081,143.405441 699.359619,138.164703 704.963867,133.587006 
	C722.473083,119.284828 740.053101,105.068642 757.681213,90.913254 
	C759.427185,89.511253 761.632690,88.607391 763.742371,87.767281 
	C764.649048,87.406227 765.855896,87.799255 767.850403,87.893227 
	C764.404785,93.145599 759.772644,97.254715 759.210327,101.860703 
	C758.599060,106.867638 755.690979,109.312302 753.434448,113.693054 
	C757.471619,113.032036 761.508850,112.371010 765.546082,111.709991 
	C765.947449,112.225456 766.348816,112.740921 766.750122,113.256386 
	C754.232300,127.549973 741.714417,141.843567 728.288391,157.174225 
	C732.299377,156.703217 735.353455,156.162811 738.426025,156.018158 
	C747.346252,155.598145 756.278992,155.054138 765.194946,155.216278 
	C767.366028,155.255753 770.059998,157.381149 771.539795,159.298874 
	C778.194519,167.922592 776.988220,174.942352 768.687073,183.917816 
	C757.412048,196.108673 743.905396,205.414062 730.498901,214.949524 
	C722.511658,220.630539 714.669861,226.634521 707.434570,233.230423 
	C690.430115,248.732361 673.988708,264.851349 657.008728,280.380951 
	C645.756287,290.672302 635.169189,301.826050 621.853821,309.663910 
	C617.097168,312.463837 612.331726,315.248810 607.570251,318.040588 
	C607.078430,317.735626 606.586548,317.430664 606.094727,317.125702 
	C606.807373,315.734680 607.176514,313.911957 608.290588,313.025391 
	C613.915161,308.549530 620.007263,304.630768 625.409241,299.914093 
	C631.106018,294.940125 636.221069,289.314819 637.099609,281.156708 
	C637.189880,280.318359 638.012024,279.374664 638.749817,278.818237 
	C647.499939,272.219238 651.122803,262.087280 656.289917,253.084396 
	C658.949463,248.450684 662.204590,244.769363 666.114075,241.123627 
	C680.696289,227.525253 694.772949,213.384705 709.303345,199.201813 
z"/>
<path fill="#0049FF" opacity="1.000000" stroke="none" 
	d="
M631.236755,216.264008 
	C622.436707,224.623947 612.225647,228.921951 600.495056,228.922394 
	C590.499695,228.922791 580.460022,229.985840 570.618164,226.371979 
	C557.727356,221.638596 548.061646,213.353760 541.014282,201.817795 
	C538.469238,197.651657 536.177856,193.309189 534.057678,188.908905 
	C527.633179,175.575363 531.566833,162.578552 536.156677,149.926468 
	C540.408386,138.206909 546.281433,127.151253 555.308960,118.306862 
	C564.628906,109.175934 575.780945,103.674362 588.950317,101.864273 
	C600.811646,100.233978 612.342407,100.264610 622.796387,106.506752 
	C631.944824,111.969292 636.921143,120.469368 636.894165,131.372070 
	C636.890808,132.730377 635.487854,134.085236 634.817627,135.290237 
	C632.476746,131.009201 631.088196,127.292839 628.665527,124.461296 
	C627.103455,122.635529 624.057922,122.025269 621.614319,121.023796 
	C619.541199,120.174164 617.377808,119.544609 614.529724,118.569580 
	C615.299011,120.237946 616.267395,121.654663 616.577026,123.203094 
	C616.882812,124.732399 616.890198,126.560707 616.277344,127.918892 
	C616.025146,128.477615 613.793030,128.045441 612.489197,128.244690 
	C608.019958,128.927689 603.536316,129.562836 599.113831,130.483719 
	C597.241882,130.873520 595.573364,132.245163 593.701355,132.629410 
	C580.849304,135.267441 573.709900,144.484375 568.078003,155.145660 
	C565.523071,159.982086 563.233948,165.210098 562.175720,170.529327 
	C560.425659,179.326477 564.913330,186.469971 571.408020,191.593796 
	C576.800293,195.847900 583.030273,199.871964 589.536194,201.718521 
	C605.634583,206.287689 619.842224,196.093750 626.158020,180.623428 
	C631.395691,167.794205 629.498352,156.182693 624.832031,143.754059 
	C623.147461,139.267242 621.345032,134.962204 617.585327,129.762741 
	C620.506470,130.221909 622.025085,130.058395 623.058655,130.689377 
	C629.043213,134.343063 634.944275,138.137497 640.791565,142.008194 
	C641.747192,142.640778 642.443970,143.810013 643.006897,144.866333 
	C646.227661,150.910080 649.551147,156.910919 652.447510,163.109573 
	C653.505859,165.374557 654.386047,168.368561 653.813293,170.643738 
	C650.437866,184.051849 646.981079,197.511581 638.050171,208.626404 
	C635.990479,211.189789 633.681824,213.553146 631.236755,216.264008 
z"/>
<path fill="#0049FF" opacity="1.000000" stroke="none" 
	d="
M956.634521,132.724060 
	C948.806335,135.814651 940.336670,136.220734 934.432434,142.936584 
	C927.523682,150.794937 921.930542,159.412491 919.372864,169.492035 
	C916.756775,179.801865 922.709839,186.924728 929.859680,193.468750 
	C938.927856,201.768631 949.782593,203.420242 961.116333,201.727097 
	C971.878906,200.119293 981.919373,187.893768 983.411011,175.946030 
	C984.603516,176.304962 985.728516,176.643585 987.139893,177.068405 
	C987.139893,172.855713 987.139893,168.588821 987.139893,164.321915 
	C987.561157,164.105118 987.982422,163.888336 988.403687,163.671539 
	C989.598511,165.554535 991.195679,167.298080 991.906555,169.348862 
	C993.498718,173.942337 994.534424,178.725693 996.019531,183.360321 
	C997.089478,186.699188 996.105835,189.513855 994.925659,192.611786 
	C993.441467,196.507675 992.599731,200.666595 991.684875,204.757675 
	C988.930664,217.075180 979.230713,222.806137 968.799255,225.647827 
	C952.776611,230.012650 936.200684,230.378632 920.681885,222.811127 
	C910.227783,217.713379 902.686218,209.276535 897.036987,199.158997 
	C896.959961,199.020981 897.019775,198.797684 896.930786,198.676422 
	C887.984741,186.476074 887.608276,172.324722 889.273682,158.394058 
	C890.611267,147.205063 895.945190,137.105148 903.237244,128.214279 
	C914.415100,114.585495 929.645325,107.900177 946.239075,105.416008 
	C957.168640,103.779808 968.941956,103.142761 979.115295,110.475494 
	C988.231812,117.046486 992.539368,125.428665 990.441528,138.179077 
	C989.201721,136.334534 988.239990,135.508087 988.062317,134.538040 
	C987.137451,129.488876 984.296936,125.710320 979.826294,123.699127 
	C977.489014,122.647667 974.436462,123.186295 971.182068,122.972237 
	C971.292908,123.404121 971.451477,124.555466 971.879333,125.596039 
	C973.756714,130.162186 972.990784,131.722748 968.117188,130.817261 
	C963.958008,130.044479 960.558533,131.095230 956.634521,132.724060 
z"/>
<path fill="#0049FF" opacity="1.000000" stroke="none" 
	d="
M871.095947,183.999908 
	C875.474121,184.375229 879.433716,184.485565 883.253418,185.273712 
	C884.540100,185.539215 885.471741,187.525818 886.252563,189.315735 
	C880.230286,189.378815 876.888672,192.247513 872.852966,195.966370 
	C868.016296,200.423416 863.548950,206.452225 854.414368,205.481049 
	C847.553284,204.751587 840.205811,208.274918 833.118164,210.075409 
	C822.736511,212.712708 812.286743,214.273483 801.504456,214.133423 
	C795.516296,214.055649 789.523865,215.582336 783.507690,215.901306 
	C779.947693,216.090057 776.323303,215.443314 772.753662,214.975433 
	C768.191589,214.377472 766.914551,212.073959 768.715027,207.777176 
	C769.430847,206.068848 770.846863,204.572418 771.212708,202.826263 
	C771.477905,201.560806 770.447449,200.061157 770.164185,198.632339 
	C769.912781,197.363785 769.295532,195.361404 769.867981,194.862320 
	C774.832764,190.533936 779.368591,185.461029 787.024902,185.920151 
	C793.497070,186.308289 800.017029,186.180222 806.505371,185.964951 
	C823.523621,185.400406 840.534912,184.629166 857.551819,184.018829 
	C861.903381,183.862762 866.265442,183.998337 871.095947,183.999908 
z"/>
<path fill="#0049FF" opacity="1.000000" stroke="none" 
	d="
M254.989471,217.005646 
	C252.404434,222.304611 250.039703,227.314453 247.300735,232.110580 
	C246.467804,233.569061 244.602554,234.438004 243.216782,235.571487 
	C240.455658,229.190231 238.563507,223.592407 235.696793,218.548447 
	C233.016190,213.831970 232.757278,209.837143 234.494049,204.551437 
	C237.423706,195.635330 238.940811,186.255051 241.051331,177.069839 
	C243.451447,166.624252 250.295883,158.562424 255.800064,149.800751 
	C257.531189,147.045135 259.904877,144.693161 262.509003,141.516632 
	C265.854675,144.336304 268.898346,146.945862 271.996582,149.488937 
	C273.108215,150.401367 274.246307,151.585632 275.552887,151.903381 
	C280.946991,153.215271 284.563232,158.842514 282.314362,164.088684 
	C278.527527,172.922577 274.323120,181.598495 269.875671,190.122421 
	C265.195007,199.093262 260.023224,207.807846 254.989471,217.005646 
z"/>
<path fill="#0049FF" opacity="1.000000" stroke="none" 
	d="
M814.495850,122.078522 
	C811.955139,116.017616 816.585999,109.131355 823.382202,109.074478 
	C846.024353,108.884979 868.669189,108.974098 891.312439,109.081879 
	C892.515137,109.087601 893.712341,110.245041 894.912109,110.866333 
	C894.078735,111.886688 893.320007,112.981979 892.391907,113.907288 
	C891.370911,114.925186 889.360657,115.679153 889.224426,116.734375 
	C888.501892,122.332100 883.065369,124.349861 880.537292,128.575089 
	C879.669373,130.025543 876.560059,130.285431 874.404480,130.787796 
	C866.650146,132.594971 858.941101,134.946075 851.073364,135.827469 
	C841.578918,136.891022 831.942017,136.765244 822.362854,136.940414 
	C819.456421,136.993546 816.449402,136.667679 813.645813,135.922989 
	C810.183716,135.003357 808.717773,132.908844 811.101868,129.324585 
	C812.540222,127.162231 813.533569,124.703850 814.495850,122.078522 
z"/>
<path fill="#0049FF" opacity="1.000000" stroke="none" 
	d="
M799.383667,147.126343 
	C804.658081,146.246033 809.630127,145.165192 814.612732,145.113617 
	C822.206299,145.035019 829.804504,145.837219 837.405640,145.958862 
	C847.732849,146.124130 858.065491,145.942245 868.393921,146.065231 
	C869.881165,146.082932 871.357910,146.971283 872.839539,147.456726 
	C872.176880,148.852478 871.762634,150.455109 870.804932,151.605148 
	C867.959412,155.021851 864.934326,158.292053 861.914490,161.559555 
	C859.004028,164.708847 856.185608,167.030243 851.123108,167.324036 
	C844.941956,167.682724 838.987183,171.245453 832.774109,171.900345 
	C820.824890,173.159897 808.767761,173.512054 796.744324,173.876999 
	C793.307068,173.981323 792.471191,170.944656 793.121765,168.096191 
	C794.005798,164.225845 795.454529,160.943649 793.320923,156.524521 
	C791.273193,152.283020 795.883606,149.705414 799.383667,147.126343 
z"/>
<path fill="#0049FF" opacity="1.000000" stroke="none" 
	d="
M299.054047,128.974548 
	C297.341217,135.936386 293.784271,141.301620 288.753906,145.746918 
	C286.612122,147.639603 284.776184,148.670395 282.210785,145.884537 
	C280.044708,143.532318 276.913513,142.099945 274.513428,139.925064 
	C270.608826,136.386841 266.952301,132.574860 263.627136,129.306961 
	C271.179077,113.341530 278.032928,98.745384 285.027130,84.216789 
	C285.794800,82.622108 287.367889,81.415161 288.567444,80.028397 
	C289.543365,81.353851 290.573975,82.643166 291.480469,84.014534 
	C292.459900,85.496246 293.096680,87.261932 294.272522,88.547379 
	C305.444519,100.760788 302.134338,114.670380 299.054047,128.974548 
z"/>
</svg>