<svg version="1.1" id="Layer_1" xmlns="http://www.w3.org/2000/svg" xmlns:xlink="http://www.w3.org/1999/xlink" x="0px" y="0px"
	 width="100%" viewBox="0 0 3000 1000" enable-background="new 0 0 3000 1000" xml:space="preserve">
<path fill="#FFFFFF" opacity="1.000000" stroke="none" 
	d="
M2118.000000,1001.000000 
	C1412.000000,1001.000000 706.500000,1001.000000 1.000000,1001.000000 
	C1.000000,667.666687 1.000000,334.333344 1.000000,1.000000 
	C1001.000000,1.000000 2001.000000,1.000000 3001.000000,1.000000 
	C3001.000000,334.333344 3001.000000,667.666687 3001.000000,1001.000000 
	C2706.833252,1001.000000 2412.666748,1001.000000 2118.000000,1001.000000 
M998.369873,429.891144 
	C1003.921631,421.387115 1009.473328,412.883087 1014.938904,404.511047 
	C1019.534546,420.065796 1023.794678,435.076782 1028.404663,449.979523 
	C1043.269409,498.033478 1058.620361,545.941772 1072.899902,594.167908 
	C1075.695435,603.609436 1078.586914,611.225647 1088.282471,614.756897 
	C1089.645874,615.253540 1090.814331,616.345459 1092.002075,617.254639 
	C1098.953369,622.576172 1105.370117,628.287903 1106.260864,637.732727 
	C1130.853027,639.052490 1137.715088,656.810486 1142.422607,676.326172 
	C1149.950073,676.001099 1151.551270,674.395630 1150.277222,668.031433 
	C1146.918701,651.256165 1143.316406,634.529175 1140.060669,617.734558 
	C1139.604980,615.384460 1139.893921,612.435608 1140.949097,610.317261 
	C1151.842651,588.446960 1162.864746,566.639160 1174.043579,544.912903 
	C1198.603271,497.180298 1223.456421,449.597534 1247.786011,401.748260 
	C1254.772217,388.008392 1261.070435,373.823242 1266.424683,359.375519 
	C1271.908447,344.578400 1276.160156,329.279114 1272.039917,313.085052 
	C1271.430908,310.691925 1272.182373,307.952698 1272.304321,305.373566 
	C1267.026489,294.521912 1269.476074,294.989258 1255.690674,298.891785 
	C1254.997314,297.879761 1254.274292,296.791016 1253.518188,295.725677 
	C1248.223145,288.265106 1243.199219,280.589905 1237.538330,273.417694 
	C1232.505737,267.041565 1227.343140,267.022949 1221.421021,272.720276 
	C1218.910034,275.135895 1216.337646,277.654053 1214.493530,280.568756 
	C1204.184937,296.862457 1194.113647,313.306213 1183.902222,329.661774 
	C1181.969727,332.757050 1180.696411,335.564636 1183.015869,339.227753 
	C1183.680908,340.278076 1182.711060,342.925690 1181.760498,344.355286 
	C1153.203735,387.305878 1136.612427,434.812073 1127.978760,485.342621 
	C1126.634888,493.207123 1125.821533,501.161285 1124.600830,509.048920 
	C1124.440430,510.085754 1123.313110,510.972992 1122.633545,511.929474 
	C1121.874268,511.034607 1120.722900,510.249847 1120.434570,509.222748 
	C1119.764160,506.835144 1119.508545,504.330902 1119.086792,501.873566 
	C1111.944946,460.264709 1104.509155,418.703552 1097.755615,377.031769 
	C1092.433960,344.196320 1086.731079,311.359558 1087.384644,277.863190 
	C1087.488159,272.557098 1086.674805,267.217316 1086.068237,261.917969 
	C1085.558228,257.462891 1084.516724,253.064682 1084.088867,248.604980 
	C1083.043091,237.709167 1082.216675,226.792343 1081.279785,215.621216 
	C1076.793213,216.439377 1072.087646,217.297485 1068.122681,218.020554 
	C1062.181274,208.725800 1056.458984,199.983582 1051.023438,191.066559 
	C1050.103394,189.557404 1049.583374,186.849854 1050.322266,185.468246 
	C1052.307373,181.756958 1050.965454,179.309662 1048.373413,176.482132 
	C1041.827271,181.978989 1035.077148,186.953491 1029.217285,192.817627 
	C1025.467041,196.570663 1022.315796,198.034027 1017.692261,195.066971 
	C1017.071655,194.668762 1016.080994,194.620300 1015.304993,194.726440 
	C1007.727295,195.763031 1001.000916,203.620880 1000.999451,211.358109 
	C1000.998840,214.524399 1000.697021,217.724930 1001.051025,220.851151 
	C1002.699524,235.412109 998.755493,248.421158 992.066589,261.343719 
	C980.230957,284.209351 970.126648,307.979309 958.075745,330.723297 
	C941.809204,361.423584 924.033813,391.321747 907.584717,421.928925 
	C896.503662,442.547729 885.624146,463.379425 876.391724,484.862488 
	C862.757507,516.588379 851.013184,549.120972 837.810242,581.039490 
	C827.458191,606.065918 816.708008,630.969971 802.014526,653.912720 
	C801.103699,655.334839 801.171326,657.695374 801.456299,659.514038 
	C802.372131,665.359070 804.557556,671.068420 802.039978,677.079407 
	C799.732483,682.588989 801.000061,687.817200 803.864929,692.812988 
	C804.744690,694.347229 805.474243,695.967590 806.219360,697.442993 
	C793.072449,710.803711 796.207581,719.114136 806.686768,725.824524 
	C806.296753,739.031738 801.273987,750.404480 792.187805,759.839050 
	C788.883423,763.270081 788.308411,765.865479 791.738525,769.052673 
	C798.072510,767.683289 801.007629,762.695984 804.130127,758.005981 
	C837.693542,707.594604 870.191223,656.586426 899.359924,603.401917 
	C931.260376,545.236572 965.053894,488.109497 998.369873,429.891144 
M492.686371,361.167145 
	C485.519623,352.936157 481.612946,343.637817 482.102722,332.446930 
	C482.328369,327.291046 483.007782,323.161377 488.806793,321.858429 
	C488.083862,317.871338 485.278229,315.090881 482.350281,316.524414 
	C478.094757,318.607880 473.249268,321.784698 471.229034,325.792572 
	C437.866089,391.979767 404.661835,458.250092 371.991608,524.781494 
	C360.725220,547.724915 350.950531,571.404053 340.669373,594.823975 
	C339.298279,597.947327 337.713501,601.792542 338.368195,604.844177 
	C340.823456,616.288574 344.166595,627.542358 347.184845,638.897278 
	C351.660553,638.123474 355.396271,637.933350 358.800110,636.771118 
	C362.843079,635.390808 365.977661,636.491211 367.939850,639.659241 
	C372.543671,647.092407 377.063049,654.627808 380.890442,662.475952 
	C383.879700,668.605347 386.118530,669.951599 392.049530,666.049194 
	C398.312866,661.928223 404.211395,657.252869 409.479889,653.397339 
	C412.488220,653.557983 415.130585,654.129761 417.623993,653.742615 
	C422.814819,652.936462 427.927948,650.765320 433.006622,654.184265 
	C433.552277,654.551575 434.699860,654.558350 435.297302,654.233765 
	C442.429169,650.358521 449.900024,652.299255 457.292511,652.816833 
	C463.702240,653.265625 470.119385,654.078125 476.524323,653.999756 
	C483.449127,653.914978 490.645477,651.538025 497.205353,652.817383 
	C504.132111,654.168274 510.527740,654.002747 517.200134,652.809387 
	C519.321533,652.429993 521.490112,651.984192 523.622803,652.047791 
	C549.268799,652.812012 574.934387,653.266418 600.545471,654.690735 
	C611.029968,655.273865 620.061096,652.962036 627.983643,646.540283 
	C643.463013,633.993103 655.477600,618.608459 664.055542,600.613220 
	C669.844116,588.469604 675.213806,576.121460 681.212585,564.084961 
	C684.011719,558.468628 687.872375,553.383240 691.222351,548.038635 
	C692.510986,545.982788 694.054504,544.003296 694.902710,541.769165 
	C698.437378,532.458862 701.609924,523.009827 705.211609,513.726624 
	C706.798889,509.635620 709.762756,506.011871 710.962280,501.847748 
	C721.487305,465.310822 731.431580,428.604034 742.222656,392.147278 
	C748.483765,370.994507 754.759521,349.749359 765.509277,330.223297 
	C766.133484,329.089508 765.807068,327.042816 765.242493,325.708954 
	C762.134705,318.365967 759.010071,311.016388 755.484863,303.869537 
	C753.747009,300.346283 753.588623,297.112701 755.535278,293.942993 
	C757.110596,291.377838 756.679077,289.670654 754.756409,287.481171 
	C747.459656,279.171875 743.498657,269.684479 744.092651,258.296509 
	C744.355591,253.255707 745.326782,249.514389 750.680664,248.346664 
	C748.724792,242.117203 745.132690,240.944672 740.945068,245.045837 
	C738.933289,247.016113 736.935547,249.138519 735.495300,251.531433 
	C727.867615,264.204376 719.483032,276.532654 713.067322,289.805328 
	C682.037720,353.998108 651.389343,418.376984 620.954834,482.854645 
	C608.071716,510.148682 596.044861,537.846924 583.560547,565.512695 
	C580.103027,565.512695 576.166260,565.512695 571.268188,565.512695 
	C574.254211,555.529785 576.906677,545.969360 580.024292,536.563171 
	C581.364868,532.518311 583.649658,528.783020 585.546692,524.927307 
	C586.379883,523.233826 587.728333,521.687500 588.143677,519.910889 
	C594.193359,494.035828 599.763794,468.042847 606.208496,442.268036 
	C610.631348,424.579559 615.237427,406.835358 624.599487,390.832031 
	C625.238403,389.739929 624.807617,387.657440 624.249512,386.290619 
	C621.298462,379.062347 618.341492,371.823242 614.985168,364.779144 
	C613.253906,361.145752 613.001526,357.820221 614.905823,354.393768 
	C616.247925,351.978912 615.686035,350.309204 613.886353,348.279358 
	C606.677429,340.148499 602.588318,330.877136 603.100830,319.646027 
	C603.334656,314.521912 603.879211,310.319885 609.586548,308.953491 
	C607.447510,302.707611 604.140320,301.696167 599.948914,305.892456 
	C597.955627,307.888123 595.921021,309.977448 594.483643,312.371643 
	C584.220093,329.467255 572.875610,346.054230 564.185181,363.926361 
	C542.097046,409.351471 521.549255,455.523163 499.730103,501.082458 
	C486.745636,528.194458 472.689880,554.800720 458.759064,581.447815 
	C454.397583,589.790527 448.673523,590.400940 441.185364,584.536560 
	C451.046936,572.125977 456.719330,557.502930 462.873383,543.161255 
	C465.552155,536.918518 468.370544,530.589783 469.872253,524.013916 
	C475.528992,499.244171 480.318390,474.274078 486.130646,449.543060 
	C489.886749,433.560883 494.307495,417.666809 503.462311,403.612518 
	C504.125427,402.594482 503.674561,400.447418 503.102234,399.096100 
	C500.251556,392.365540 497.372070,385.633911 494.131927,379.086121 
	C491.991302,374.760223 491.413055,370.733185 493.548126,366.244690 
	C494.099823,365.084808 493.322144,363.292572 492.686371,361.167145 
M1427.497925,403.000671 
	C1433.965698,402.691986 1440.440552,402.487823 1446.899048,402.043945 
	C1452.834229,401.636047 1459.072754,399.493561 1464.616089,400.698334 
	C1480.394775,404.127686 1495.848389,402.109985 1511.071167,398.965240 
	C1541.794067,392.618530 1572.319580,385.312347 1602.894653,378.263672 
	C1604.607056,377.868896 1606.267090,376.450470 1607.549194,375.120605 
	C1614.006226,368.423126 1620.377563,361.640625 1626.667847,354.786041 
	C1628.333740,352.970795 1630.246704,350.995941 1630.952881,348.750519 
	C1634.820801,336.452698 1640.032593,325.687439 1654.855591,324.621155 
	C1655.558716,319.753937 1652.623169,317.869171 1649.237427,315.931519 
	C1640.650879,311.017639 1631.429321,314.435211 1622.545532,313.750214 
	C1617.181274,313.336548 1611.649414,317.185883 1606.232910,313.241974 
	C1605.653931,312.820465 1604.185669,313.045959 1603.456177,313.497864 
	C1598.376465,316.645386 1592.888306,315.660553 1587.424927,315.388275 
	C1579.225220,314.979645 1571.224121,311.744537 1562.820923,313.908020 
	C1559.950806,314.646912 1556.886108,314.844238 1553.903564,314.897064 
	C1534.585571,315.239075 1515.259399,315.896393 1495.948730,315.603699 
	C1481.360352,315.382538 1466.791138,313.901550 1452.083252,312.973083 
	C1451.730225,304.025909 1454.907349,297.477234 1461.889648,293.333832 
	C1470.908325,287.981964 1481.144287,285.868225 1491.214722,287.957428 
	C1508.350342,291.512299 1525.046631,289.494293 1541.634155,285.874664 
	C1571.475098,279.362915 1601.185425,272.249664 1630.922607,265.270416 
	C1632.505859,264.898834 1634.031128,263.644714 1635.249512,262.458466 
	C1642.714233,255.190536 1650.113403,247.853958 1657.442017,240.448990 
	C1658.291260,239.590851 1658.756958,238.221283 1659.089600,237.003937 
	C1662.553589,224.324020 1667.852051,213.410416 1682.905762,212.082428 
	C1683.431152,202.687103 1668.125854,197.700943 1655.745117,202.220871 
	C1654.457397,201.440460 1653.069824,200.811783 1651.745850,200.925125 
	C1645.798340,201.434280 1639.861816,204.883087 1633.914673,200.739685 
	C1633.420532,200.395401 1632.273193,200.657623 1631.583862,200.974258 
	C1623.034180,204.901733 1614.321167,202.594955 1605.631470,201.788956 
	C1601.757568,201.429626 1597.841187,201.023773 1593.972656,201.215149 
	C1586.168213,201.601257 1578.375366,202.990509 1570.591553,202.890915 
	C1541.109009,202.513641 1511.620605,202.009842 1482.157837,200.920349 
	C1469.237061,200.442535 1456.749390,200.022675 1445.363525,207.695404 
	C1443.094360,209.224518 1439.557983,208.873276 1436.740601,209.365570 
	C1435.941406,203.770874 1435.531494,199.126862 1434.551758,194.606277 
	C1433.770142,190.999268 1432.220581,187.532104 1436.388550,184.978363 
	C1434.771973,183.790543 1433.501709,182.857147 1431.566528,181.435150 
	C1426.542236,185.258698 1419.435669,188.144073 1416.417969,193.384125 
	C1400.166748,221.603607 1384.487427,250.179138 1369.563354,279.122986 
	C1363.604980,290.678711 1360.091064,303.494293 1355.455933,315.733093 
	C1354.470703,318.334320 1353.734985,321.080505 1352.398682,323.490570 
	C1335.995850,353.071930 1317.328613,381.297333 1306.046509,413.732300 
	C1289.390991,461.615906 1268.562988,507.909027 1246.137695,553.345032 
	C1210.677979,625.189758 1174.118042,696.491272 1138.092773,768.057434 
	C1137.022583,770.183533 1135.994141,772.766602 1136.203491,775.019836 
	C1136.848389,781.964661 1137.736450,788.933289 1139.227661,795.739868 
	C1140.659912,802.278687 1141.441528,809.376648 1148.080566,813.508179 
	C1145.927124,817.767517 1144.187500,822.137451 1141.651123,825.981567 
	C1138.698120,830.457214 1138.999268,834.133179 1143.549194,838.508850 
	C1149.884888,835.065552 1156.510864,831.464478 1163.655396,827.581604 
	C1163.854126,830.301208 1163.969604,831.881409 1164.085083,833.461548 
	C1169.782959,826.787659 1174.943359,819.876526 1179.061035,812.391846 
	C1205.826294,763.742126 1232.363770,714.967163 1258.980103,666.235535 
	C1261.048462,662.448242 1262.755371,658.388367 1265.294678,654.945129 
	C1293.695190,616.433533 1318.956543,575.899109 1341.385498,533.709473 
	C1363.604370,491.914795 1384.505615,449.418304 1405.808960,407.140991 
	C1407.400757,403.981964 1409.000366,402.689606 1412.506592,402.924133 
	C1417.151733,403.234833 1421.833374,403.000671 1427.497925,403.000671 
M1861.883423,907.385681 
	C1846.792969,918.589966 1831.702393,929.794250 1816.387085,941.165527 
	C1817.100830,942.524475 1818.070190,944.370056 1819.231201,946.580688 
	C1824.046753,944.301758 1828.579468,942.583313 1832.676392,940.135559 
	C1843.666626,933.569519 1854.805664,927.169617 1865.272339,919.829163 
	C1882.569214,907.698364 1900.737671,896.344116 1916.157349,882.086975 
	C1969.250488,832.996765 2021.021729,782.480225 2073.856201,733.106018 
	C2118.039307,691.816650 2163.276611,651.819702 2214.385498,618.849670 
	C2243.229736,600.242126 2269.851074,578.436646 2293.445312,553.259399 
	C2304.301270,541.674988 2314.084717,529.279968 2320.648438,514.667847 
	C2321.496826,512.778137 2322.281494,510.421295 2321.922363,508.500153 
	C2319.863525,497.487335 2316.575684,486.855347 2310.059326,477.548126 
	C2303.830322,468.651581 2295.412598,462.470947 2284.462646,462.090240 
	C2256.324707,461.111938 2228.152832,460.957245 2200.520508,467.718872 
	C2193.193359,469.511841 2186.073242,470.683380 2178.815918,466.771729 
	C2180.053955,465.181366 2181.162842,463.521606 2182.500977,462.073425 
	C2204.885254,437.845886 2227.225830,413.577362 2249.782471,389.511230 
	C2253.129150,385.940704 2255.998535,383.008972 2251.747314,378.310150 
	C2255.986572,374.483063 2260.075928,371.076599 2263.835205,367.338226 
	C2271.860596,359.357666 2279.911377,351.383972 2287.525879,343.019897 
	C2289.988281,340.315155 2291.122070,336.400787 2292.863770,333.039673 
	C2292.320557,332.385162 2291.777588,331.730652 2291.234619,331.076141 
	C2283.837402,333.202637 2275.830078,334.198669 2269.211914,337.769104 
	C2262.412354,341.437439 2257.691650,340.801056 2252.745850,335.713715 
	C2252.532959,335.494568 2252.445557,335.152893 2252.163330,334.601929 
	C2257.286621,328.631378 2262.349121,322.469482 2267.717773,316.587036 
	C2270.355713,313.696564 2271.067871,310.899017 2268.879883,307.671783 
	C2267.261475,305.284729 2267.769531,303.567200 2269.697510,301.611694 
	C2274.370605,296.871948 2278.698730,291.782867 2283.494873,287.177155 
	C2285.964355,284.805756 2285.299316,283.206879 2283.225098,281.499664 
	C2282.251221,280.698151 2280.970215,280.269897 2279.151611,279.318268 
	C2284.199219,273.788361 2288.968262,268.563690 2294.086426,262.956390 
	C2293.559570,261.962860 2292.733643,260.405060 2291.646729,258.354675 
	C2287.796875,260.205566 2284.027344,261.569733 2280.738770,263.682465 
	C2270.524170,270.244446 2260.178467,276.667816 2250.442383,283.897583 
	C2199.300537,321.873566 2151.366455,363.748352 2103.585938,405.777344 
	C2081.707520,425.022156 2060.019287,444.235657 2034.252808,458.504395 
	C2017.963013,467.525177 2002.888794,478.791809 1989.969360,492.416565 
	C1985.104614,497.546967 1981.163818,503.631195 1977.350342,509.629333 
	C1976.318359,511.252502 1976.869629,514.257019 1977.428955,516.439209 
	C1978.617676,521.076050 1980.827026,525.493896 1981.656006,530.172058 
	C1983.666138,541.515869 1987.600342,551.995117 1994.652100,561.089783 
	C2004.149536,573.338562 2017.152832,579.447327 2032.277954,577.389893 
	C2059.273926,573.717529 2086.124756,568.886719 2112.939941,564.010498 
	C2133.556885,560.261414 2153.918457,555.021790 2175.521729,555.396484 
	C2176.356201,557.731018 2175.206299,560.064026 2172.083496,562.079651 
	C2166.772705,565.507935 2161.619629,569.195374 2156.531738,572.952026 
	C2140.635010,584.689636 2123.618408,594.841614 2109.891113,609.546326 
	C2093.980957,626.589355 2077.361572,643.009216 2060.456543,659.075256 
	C2033.051392,685.120483 2005.148926,710.642090 1977.518677,736.451599 
	C1976.135498,737.743652 1975.188354,739.589966 1974.305176,741.314941 
	C1969.848267,750.020447 1966.498779,759.526733 1960.759277,767.267944 
	C1956.148315,773.486938 1952.892212,779.868835 1950.118164,786.915039 
	C1942.721680,805.701538 1929.444336,820.083252 1914.476685,833.118591 
	C1913.069946,834.343872 1911.231934,836.063416 1911.135376,837.647278 
	C1910.364624,850.312866 1904.724487,860.930115 1897.598877,870.915833 
	C1887.745605,884.724121 1875.425415,896.167908 1861.883423,907.385681 
M1681.363525,521.905701 
	C1681.808105,516.145447 1681.517334,510.213593 1682.815186,504.652466 
	C1691.929565,465.600647 1713.108032,433.719238 1742.088501,406.643127 
	C1744.078735,404.783661 1746.605957,403.205933 1749.167358,402.296722 
	C1771.077393,394.519257 1793.022827,386.837158 1815.042847,379.377991 
	C1818.229736,378.298431 1821.896118,378.096375 1825.291870,378.300537 
	C1830.086792,378.588715 1834.817993,379.844788 1839.613403,380.258728 
	C1841.730225,380.441406 1844.842285,380.322632 1845.918579,379.025970 
	C1848.260254,376.204773 1849.554688,372.445709 1846.353882,369.106476 
	C1840.911621,363.428833 1841.061768,356.610718 1841.987915,349.281433 
	C1846.941284,348.327454 1849.592407,352.216949 1852.488892,354.674561 
	C1857.459961,358.892242 1862.355347,359.485535 1868.109497,356.800110 
	C1869.353760,356.219513 1871.499268,356.161987 1872.583008,356.863037 
	C1883.561157,363.963715 1892.828857,372.687042 1897.054932,385.505157 
	C1898.595215,390.177612 1899.323608,395.117767 1900.825439,401.702057 
	C1902.927979,398.964752 1905.468140,397.170288 1905.599121,395.214417 
	C1906.064575,388.265900 1907.152832,380.879608 1905.420410,374.344269 
	C1896.777710,341.737671 1877.237549,318.347839 1844.432373,308.057831 
	C1809.876709,297.218842 1775.013184,299.279602 1740.559326,308.730774 
	C1694.144409,321.462952 1660.565918,350.995941 1635.560181,391.172058 
	C1616.222656,422.241516 1604.433472,456.339447 1594.655151,491.394745 
	C1589.615356,509.462708 1590.754150,527.164246 1595.511475,544.453369 
	C1598.954224,556.965027 1605.161987,568.843994 1611.097656,580.516541 
	C1626.324219,610.460388 1646.205688,636.707642 1674.365601,655.818054 
	C1699.076050,672.587280 1726.591309,680.959717 1756.321167,682.452087 
	C1783.714722,683.827209 1810.962280,683.518311 1837.347168,674.710083 
	C1875.490356,661.976501 1902.330811,635.993042 1921.932251,601.748718 
	C1939.807617,570.520325 1949.790039,536.492920 1956.806519,501.484894 
	C1957.298706,499.028717 1956.383545,495.872162 1955.151123,493.559021 
	C1948.739624,481.526459 1941.753052,469.796509 1935.481934,457.694244 
	C1930.749512,448.561523 1926.863403,438.993225 1922.435181,429.697662 
	C1921.455200,427.640625 1920.172363,425.307007 1918.360229,424.132446 
	C1900.626465,412.637543 1882.805786,401.273193 1864.856445,390.118195 
	C1862.153687,388.438538 1858.662354,388.027863 1855.535645,387.030182 
	C1855.137451,387.603210 1854.739136,388.176239 1854.340942,388.749268 
	C1855.387207,390.436340 1856.257568,392.268524 1857.509155,393.786438 
	C1864.395508,402.137787 1871.464478,410.340332 1878.250854,418.771057 
	C1879.688599,420.557281 1880.210449,423.080872 1881.154297,425.264709 
	C1880.776611,425.449982 1880.398804,425.635254 1880.021118,425.820496 
	C1876.549805,423.362183 1873.078613,420.903839 1868.579834,417.717926 
	C1869.547485,420.181335 1870.078613,421.502502 1870.586548,422.832520 
	C1875.207764,434.932068 1880.183228,446.911804 1884.335327,459.170380 
	C1887.961914,469.877594 1891.465454,480.998871 1889.697388,492.393585 
	C1886.477295,513.146362 1880.883667,533.320740 1871.313354,552.178955 
	C1850.395752,593.396362 1815.967285,611.733032 1770.348389,604.691406 
	C1743.401001,600.531921 1722.499756,584.640930 1703.711548,565.973633 
	C1691.740234,554.079407 1683.974121,539.721130 1681.363525,521.905701 
M114.971024,331.425598 
	C92.950035,342.254913 71.629776,353.957062 54.919975,372.678833 
	C31.110481,399.355164 16.466320,430.679077 6.900248,464.701447 
	C5.650280,469.147034 4.320048,473.721375 4.128780,478.282288 
	C3.710255,488.262238 3.526407,498.300171 4.121849,508.262085 
	C4.834484,520.184692 4.592641,532.632690 8.069267,543.826660 
	C15.890718,569.010010 28.198204,592.302734 44.066372,613.512268 
	C68.201065,645.770813 99.216797,667.581543 139.251724,675.427063 
	C164.356476,680.346863 189.636612,680.056458 214.838699,676.803772 
	C234.510986,674.264709 253.172958,668.485840 268.765076,655.336792 
	C269.497955,654.718689 270.435333,654.072510 271.338531,653.968140 
	C282.225372,652.710144 288.711884,645.445923 294.165497,637.031433 
	C303.303345,622.932312 308.616364,607.187866 313.206207,591.174011 
	C313.459320,590.290894 313.710693,588.964539 313.262878,588.393494 
	C309.768799,583.937805 312.471649,580.564819 314.802795,576.872681 
	C317.193909,573.085510 319.696320,569.210693 321.126740,565.024597 
	C322.283447,561.639648 322.727356,557.583496 322.070831,554.091431 
	C320.478424,545.621094 318.349243,537.220520 315.904633,528.949036 
	C312.520264,517.497986 308.737183,506.161041 304.912750,494.846924 
	C304.113708,492.483154 302.956787,489.621277 298.791840,490.926483 
	C298.791840,492.795197 298.922729,494.766235 298.770294,496.715149 
	C297.877045,508.136475 296.975342,519.558105 295.887909,530.961670 
	C295.783142,532.060425 294.385620,533.035767 293.588226,534.068359 
	C293.079865,533.782959 292.571533,533.497559 292.063171,533.212158 
	C292.063171,530.451233 292.063171,527.690308 292.063171,524.928711 
	C289.892395,524.928711 288.159424,524.928711 286.277435,524.928711 
	C286.103119,528.523743 286.676361,532.069641 285.663727,535.082520 
	C279.275909,554.088318 270.163818,571.539368 254.716232,584.913879 
	C231.534775,604.984314 203.934280,608.680725 175.362625,603.179504 
	C144.229248,597.185120 120.310127,578.594971 102.444275,552.896484 
	C92.837395,539.077759 88.428131,523.424377 92.760918,506.041626 
	C102.216888,468.105103 122.955421,437.232239 151.112091,410.854706 
	C152.501266,409.553345 154.415283,408.644073 156.243195,408.005035 
	C176.461166,400.937103 196.785141,394.163605 216.905075,386.829407 
	C222.812225,384.676086 228.458603,384.301849 234.441238,385.354523 
	C237.715927,385.930756 241.033051,386.287567 244.285431,386.962952 
	C247.737869,387.679901 249.713089,386.631805 251.187714,383.244202 
	C252.638367,379.911560 251.880341,377.339355 249.754425,375.047211 
	C244.575333,369.463135 246.005219,362.941498 246.326477,354.658325 
	C250.960663,358.056610 254.659653,360.438934 257.965698,363.278717 
	C261.918823,366.674316 265.987976,367.154205 270.217346,364.384247 
	C273.088531,362.503784 275.144958,363.056335 277.778961,364.954254 
	C291.837952,375.084534 301.217773,387.923462 302.686005,406.367279 
	C304.942902,404.701324 307.535919,402.827118 307.705170,400.755005 
	C308.231598,394.308624 309.134735,387.455811 307.573883,381.353516 
	C301.503998,357.622772 289.064056,338.024933 267.451447,325.268005 
	C246.836319,313.099854 224.048370,309.896301 200.677750,310.149811 
	C170.762527,310.474304 142.607498,318.497437 114.971024,331.425598 
M2928.752930,363.103546 
	C2929.547852,363.143951 2930.535889,362.890869 2931.109131,363.268127 
	C2943.420654,371.370605 2953.132324,381.536682 2956.656738,396.394348 
	C2957.400879,399.532410 2957.661865,402.785065 2958.145752,405.984924 
	C2958.649658,406.218597 2959.153809,406.452301 2959.657959,406.686005 
	C2961.066895,404.767242 2963.548340,402.922974 2963.687744,400.916046 
	C2964.146973,394.300720 2965.074219,387.288025 2963.465088,381.034485 
	C2956.974121,355.813080 2943.271240,335.579346 2919.686768,323.143982 
	C2899.864990,312.692596 2878.336426,309.824799 2856.341797,310.155914 
	C2826.088135,310.611359 2797.602295,318.641937 2770.477783,331.738190 
	C2748.671143,342.266907 2727.733887,353.973602 2711.206299,372.372467 
	C2686.363037,400.028564 2671.535645,432.711700 2661.941650,468.135529 
	C2661.038086,471.472687 2660.171875,474.934082 2660.087402,478.357513 
	C2659.841064,488.348724 2659.523438,498.378632 2660.122803,508.339844 
	C2660.840088,520.261169 2660.671143,532.677429 2664.092041,543.902405 
	C2671.186279,567.180664 2682.533447,588.736511 2696.597900,608.717651 
	C2721.157471,643.609436 2753.325928,667.369812 2795.805420,675.555664 
	C2821.221680,680.453369 2846.843506,680.092285 2872.382568,676.541565 
	C2891.740723,673.850220 2909.952393,667.939270 2925.210205,654.982361 
	C2925.811035,654.472046 2926.638916,654.033325 2927.405518,653.943176 
	C2938.495361,652.639954 2944.950195,645.121216 2950.473633,636.555115 
	C2958.749756,623.719666 2963.655518,609.415894 2968.199951,594.959534 
	C2969.277344,591.532898 2970.078613,588.441956 2967.956299,585.039001 
	C2967.349609,584.066467 2967.900391,581.940796 2968.562988,580.682678 
	C2971.427734,575.244629 2974.959961,570.116455 2977.370850,564.498474 
	C2978.630859,561.562317 2978.818115,557.698059 2978.189209,554.509399 
	C2976.521240,546.050110 2974.421631,537.648987 2971.984375,529.374878 
	C2968.610596,517.921875 2964.861328,506.575714 2961.060303,495.255157 
	C2960.225586,492.769257 2959.190430,489.641724 2954.791992,490.901672 
	C2954.791992,492.852966 2954.923340,494.827881 2954.770264,496.780518 
	C2953.875977,508.201569 2952.968262,519.622437 2951.895020,531.027466 
	C2951.785889,532.187012 2950.549072,533.240417 2949.835205,534.343079 
	C2949.375000,534.100159 2948.914795,533.857239 2948.454590,533.614319 
	C2948.297852,530.697388 2948.141113,527.780518 2947.969971,524.594116 
	C2945.839355,524.698242 2944.106445,524.782959 2942.294434,524.871521 
	C2942.104004,528.582397 2942.660889,532.127319 2941.646729,535.143738 
	C2935.310791,553.984497 2926.286621,571.306030 2911.047852,584.628723 
	C2887.811279,604.943726 2860.064941,608.732727 2831.304932,603.162598 
	C2800.190918,597.136597 2776.257568,578.572510 2758.416260,552.846069 
	C2748.822266,539.012329 2744.435059,523.366211 2748.774170,505.986053 
	C2758.244385,468.053223 2778.995850,437.192383 2807.145264,410.809906 
	C2808.426758,409.608734 2810.137207,408.692596 2811.810303,408.108093 
	C2833.597412,400.496216 2855.401367,392.931671 2877.242676,385.477448 
	C2879.372803,384.750519 2881.820557,384.411072 2884.050049,384.626282 
	C2889.339600,385.136902 2894.568115,386.298370 2899.859619,386.754608 
	C2901.850098,386.926208 2904.718994,386.537659 2905.828369,385.241516 
	C2907.949951,382.762726 2909.506836,379.325958 2906.555908,376.251495 
	C2901.057373,370.522797 2901.705322,363.611176 2902.329102,354.961517 
	C2906.218018,357.689636 2909.601562,359.582092 2912.391602,362.125366 
	C2917.409180,366.699127 2922.453369,367.435974 2928.752930,363.103546 
M2612.923340,582.527100 
	C2621.603516,567.509033 2634.173828,560.031311 2651.703613,563.338196 
	C2652.514648,558.732178 2650.764404,556.274353 2647.533203,554.923401 
	C2644.639648,553.713684 2641.641357,552.274841 2638.592529,551.996033 
	C2622.038086,550.482117 2605.445801,548.116211 2588.881348,548.228210 
	C2546.234619,548.516296 2503.594482,549.917236 2460.955322,551.008728 
	C2458.205566,551.079163 2455.484863,552.298035 2452.750732,552.982605 
	C2453.041992,549.876404 2450.526855,551.692261 2448.652100,551.840210 
	C2439.068848,552.596619 2429.489502,553.676453 2419.891113,553.908020 
	C2405.402100,554.257751 2390.851807,553.273987 2376.413818,554.201233 
	C2361.692139,555.146729 2347.071289,557.691956 2332.417480,559.621399 
	C2331.228516,559.777954 2329.894775,560.336609 2329.021240,561.137207 
	C2323.893066,565.836670 2319.000977,570.799255 2313.789307,575.401123 
	C2310.201416,578.569214 2306.224854,581.297119 2302.701416,584.006897 
	C2306.886963,591.100952 2310.857910,597.830627 2314.853271,604.602051 
	C2310.818604,606.140564 2308.075684,607.186523 2304.948486,608.378967 
	C2306.144287,609.780762 2306.929932,610.701904 2307.735352,611.645935 
	C2305.645264,615.141357 2303.685059,618.422119 2301.722412,621.701660 
	C2297.585449,628.614929 2299.599121,635.775574 2307.205811,638.539490 
	C2311.636719,640.149597 2316.614014,640.816833 2321.361816,640.894531 
	C2338.021240,641.167419 2354.688232,640.912415 2371.350830,641.057739 
	C2375.984619,641.098145 2379.560303,640.133911 2380.515625,634.653137 
	C2398.939941,640.493652 2417.236328,637.956665 2435.346680,635.674072 
	C2468.201172,631.533142 2500.291748,623.497314 2532.387451,615.499146 
	C2545.431641,612.248596 2558.078613,605.832825 2572.260254,609.046875 
	C2575.954102,609.884094 2579.795410,610.069885 2583.355225,610.527405 
	C2586.187744,606.576050 2588.671143,602.826233 2591.446533,599.306580 
	C2595.612549,594.023254 2600.386963,589.533936 2607.018555,587.263672 
	C2609.075928,586.559387 2610.684082,584.543823 2612.923340,582.527100 
M713.244263,581.791199 
	C709.282898,595.671204 705.645630,609.656677 701.180847,623.372864 
	C699.658630,628.049500 700.103638,631.492554 702.024780,635.851746 
	C711.359558,657.032471 726.160706,676.189392 726.558716,700.746521 
	C735.990356,701.449463 736.116821,701.510498 740.040405,693.382141 
	C747.033325,678.895203 753.284607,664.020508 760.861633,649.851074 
	C780.843994,612.483215 801.676331,575.568665 821.545349,538.141968 
	C830.725464,520.849792 838.529053,502.821136 846.727600,485.020905 
	C847.730652,482.843170 848.192322,479.679352 847.392212,477.537537 
	C844.225525,469.060516 840.457092,460.808350 836.710205,451.999146 
	C834.234192,451.999146 830.886719,451.753632 827.590637,452.060211 
	C823.299133,452.459381 820.201477,450.942261 817.011963,448.040833 
	C809.262756,440.991425 801.087402,434.409760 793.069336,427.656769 
	C789.795227,424.899200 786.774719,424.567474 783.843933,428.337280 
	C781.909241,430.825867 779.457092,432.907898 777.472107,435.362488 
	C758.977417,458.232727 744.724182,483.827850 730.176514,509.229370 
	C729.609680,510.219055 729.315247,511.398560 729.058838,512.527100 
	C723.871948,535.354431 718.709229,558.187256 713.244263,581.791199 
M2657.000000,352.532074 
	C2660.541016,341.676300 2666.509521,333.487579 2679.014893,332.733215 
	C2679.263672,323.501831 2664.810791,318.724731 2652.587402,323.168457 
	C2651.327881,322.343262 2650.062256,321.779236 2648.852295,321.880859 
	C2643.254395,322.350861 2637.652588,325.810455 2632.070312,321.638367 
	C2631.629639,321.309113 2630.482910,321.622559 2629.813965,321.946381 
	C2621.602539,325.921082 2613.217773,323.565216 2604.857422,322.764435 
	C2600.998779,322.394775 2597.095215,322.002167 2593.239502,322.188904 
	C2584.771240,322.599121 2576.312256,323.988800 2567.863525,323.881836 
	C2541.213135,323.544373 2514.556152,323.020233 2487.928467,321.916290 
	C2475.038574,321.381836 2462.445312,320.710236 2451.135254,328.411499 
	C2450.197266,329.050171 2448.935303,329.195190 2447.931641,329.761108 
	C2447.186279,330.181458 2446.522705,330.838135 2445.983154,331.517059 
	C2442.943848,335.341248 2440.423828,339.746368 2436.804199,342.891266 
	C2433.592529,345.681763 2433.402100,348.310455 2434.770264,351.549957 
	C2435.532471,353.354279 2437.428467,354.739624 2437.969727,356.564117 
	C2438.913818,359.747284 2440.626709,363.749634 2439.502930,366.301025 
	C2436.241455,373.705109 2432.277832,380.960724 2427.493408,387.468628 
	C2424.909668,390.983063 2425.376221,392.985992 2427.753418,395.424561 
	C2429.232666,396.941864 2431.024414,398.398560 2432.958984,399.189636 
	C2448.284180,405.456146 2464.211182,407.884064 2480.733154,406.316864 
	C2486.295654,405.789246 2492.156250,404.172485 2497.398682,405.298431 
	C2513.057617,408.661560 2528.268799,406.192291 2543.354492,402.947632 
	C2572.080078,396.769318 2600.666504,389.941925 2629.282227,383.260620 
	C2630.848389,382.894928 2632.385986,381.621796 2633.537354,380.395966 
	C2639.343506,374.215240 2644.633301,367.483521 2650.909180,361.840118 
	C2653.773926,359.264282 2656.055664,357.004395 2657.000000,352.532074 
M2501.435059,509.037689 
	C2515.394043,504.753296 2529.425537,500.686951 2543.273926,496.070953 
	C2548.397217,494.363281 2553.159668,493.647736 2558.207520,495.676849 
	C2561.204102,496.881439 2563.227295,495.967468 2565.445801,493.453217 
	C2580.816406,476.034637 2596.397461,458.802002 2612.508545,440.843475 
	C2611.426514,439.974609 2609.638916,437.297729 2607.670166,437.157043 
	C2593.390625,436.136597 2579.080322,435.232513 2564.769287,435.033386 
	C2526.298828,434.497986 2487.823242,434.352814 2449.350342,433.985779 
	C2446.041504,433.954193 2442.720947,433.062317 2439.434814,433.211121 
	C2433.896240,433.461853 2428.139160,428.841858 2422.769531,433.876312 
	C2422.469482,434.157379 2421.372070,433.947845 2420.885254,433.615875 
	C2413.915527,428.862396 2407.411377,432.072998 2401.174316,435.085052 
	C2390.777344,440.105988 2382.866455,448.259460 2375.429932,456.867889 
	C2374.862061,457.525208 2374.447998,458.697662 2374.589111,459.523590 
	C2375.572266,465.274933 2376.428955,471.170441 2383.783203,473.794556 
	C2381.104980,482.999481 2378.536621,492.065857 2375.819580,501.087402 
	C2373.777588,507.866974 2380.257080,517.816895 2387.381348,517.913208 
	C2397.528320,518.050476 2407.684814,517.655212 2417.834961,517.400146 
	C2427.100830,517.167419 2436.387451,513.226807 2445.650391,517.810242 
	C2446.979004,518.467712 2448.969482,518.085388 2450.589600,517.809387 
	C2467.272705,514.967834 2483.942627,512.049072 2501.435059,509.037689 
M819.350830,410.136017 
	C831.569214,419.325226 843.787598,428.514404 856.342651,437.956818 
	C868.575134,430.285767 878.365967,419.601593 885.544128,406.550934 
	C899.419739,381.323578 902.998047,353.803284 903.161194,325.570679 
	C903.166504,324.648712 902.731323,323.718292 902.466797,322.801819 
	C901.661560,320.012115 900.062378,317.192963 900.183594,314.447601 
	C900.445618,308.514618 901.190308,302.529510 902.517273,296.744629 
	C903.305786,293.307190 902.388550,291.216187 900.346741,288.711609 
	C887.670959,273.163025 874.160156,258.108246 868.574646,238.123810 
	C864.344910,236.917328 862.116272,238.603729 860.262146,242.598282 
	C850.261475,264.144135 839.971130,285.555695 829.759644,307.003540 
	C818.208191,331.265900 806.634399,355.517609 795.018555,379.882538 
	C800.484741,383.091064 800.893127,388.327454 800.869751,393.492462 
	C800.856079,396.501526 801.754089,398.338074 804.299561,399.935822 
	C809.227722,403.029114 813.943726,406.460419 819.350830,410.136017 
z"/>
<path fill="#323338" opacity="1.000000" stroke="none" 
	d="
M998.196167,430.210510 
	C965.053894,488.109497 931.260376,545.236572 899.359924,603.401917 
	C870.191223,656.586426 837.693542,707.594604 804.130127,758.005981 
	C801.007629,762.695984 798.072510,767.683289 791.738525,769.052673 
	C788.308411,765.865479 788.883423,763.270081 792.187805,759.839050 
	C801.273987,750.404480 806.296753,739.031738 806.686768,725.824524 
	C796.207581,719.114136 793.072449,710.803711 806.219360,697.442993 
	C805.474243,695.967590 804.744690,694.347229 803.864929,692.812988 
	C801.000061,687.817200 799.732483,682.588989 802.039978,677.079407 
	C804.557556,671.068420 802.372131,665.359070 801.456299,659.514038 
	C801.171326,657.695374 801.103699,655.334839 802.014526,653.912720 
	C816.708008,630.969971 827.458191,606.065918 837.810242,581.039490 
	C851.013184,549.120972 862.757507,516.588379 876.391724,484.862488 
	C885.624146,463.379425 896.503662,442.547729 907.584717,421.928925 
	C924.033813,391.321747 941.809204,361.423584 958.075745,330.723297 
	C970.126648,307.979309 980.230957,284.209351 992.066589,261.343719 
	C998.755493,248.421158 1002.699524,235.412109 1001.051025,220.851151 
	C1000.697021,217.724930 1000.998840,214.524399 1000.999451,211.358109 
	C1001.000916,203.620880 1007.727295,195.763031 1015.304993,194.726440 
	C1016.080994,194.620300 1017.071655,194.668762 1017.692261,195.066971 
	C1022.315796,198.034027 1025.467041,196.570663 1029.217285,192.817627 
	C1035.077148,186.953491 1041.827271,181.978989 1048.373413,176.482132 
	C1050.965454,179.309662 1052.307373,181.756958 1050.322266,185.468246 
	C1049.583374,186.849854 1050.103394,189.557404 1051.023438,191.066559 
	C1056.458984,199.983582 1062.181274,208.725800 1068.122681,218.020554 
	C1072.087646,217.297485 1076.793213,216.439377 1081.279785,215.621216 
	C1082.216675,226.792343 1083.043091,237.709167 1084.088867,248.604980 
	C1084.516724,253.064682 1085.558228,257.462891 1086.068237,261.917969 
	C1086.674805,267.217316 1087.488159,272.557098 1087.384644,277.863190 
	C1086.731079,311.359558 1092.433960,344.196320 1097.755615,377.031769 
	C1104.509155,418.703552 1111.944946,460.264709 1119.086792,501.873566 
	C1119.508545,504.330902 1119.764160,506.835144 1120.434570,509.222748 
	C1120.722900,510.249847 1121.874268,511.034607 1122.633545,511.929504 
	C1123.313110,510.972992 1124.440430,510.085754 1124.600830,509.048920 
	C1125.821533,501.161285 1126.634888,493.207123 1127.978760,485.342621 
	C1136.612427,434.812073 1153.203735,387.305878 1181.760498,344.355286 
	C1182.711060,342.925690 1183.680908,340.278076 1183.015869,339.227753 
	C1180.696411,335.564636 1181.969727,332.757050 1183.902222,329.661774 
	C1194.113647,313.306213 1204.184937,296.862457 1214.493530,280.568756 
	C1216.337646,277.654053 1218.910034,275.135895 1221.421021,272.720276 
	C1227.343140,267.022949 1232.505737,267.041565 1237.538330,273.417694 
	C1243.199219,280.589905 1248.223145,288.265106 1253.518188,295.725677 
	C1254.274292,296.791016 1254.997314,297.879761 1255.690674,298.891785 
	C1269.476074,294.989258 1267.026489,294.521912 1272.304321,305.373566 
	C1272.182373,307.952698 1271.430908,310.691925 1272.039917,313.085052 
	C1276.160156,329.279114 1271.908447,344.578400 1266.424683,359.375519 
	C1261.070435,373.823242 1254.772217,388.008392 1247.786011,401.748260 
	C1223.456421,449.597534 1198.603271,497.180298 1174.043579,544.912903 
	C1162.864746,566.639160 1151.842651,588.446960 1140.949097,610.317261 
	C1139.893921,612.435608 1139.604980,615.384460 1140.060669,617.734558 
	C1143.316406,634.529175 1146.918701,651.256165 1150.277222,668.031433 
	C1151.551270,674.395630 1149.950073,676.001099 1142.422607,676.326172 
	C1137.715088,656.810486 1130.853027,639.052490 1106.260864,637.732727 
	C1105.370117,628.287903 1098.953369,622.576172 1092.002075,617.254639 
	C1090.814331,616.345459 1089.645874,615.253540 1088.282471,614.756897 
	C1078.586914,611.225647 1075.695435,603.609436 1072.899902,594.167908 
	C1058.620361,545.941772 1043.269409,498.033478 1028.404663,449.979523 
	C1023.794678,435.076782 1019.534546,420.065796 1014.938904,404.511047 
	C1009.473328,412.883087 1003.921631,421.387115 998.196167,430.210510 
z"/>
<path fill="#323338" opacity="1.000000" stroke="none" 
	d="
M492.920715,361.479004 
	C493.322144,363.292572 494.099823,365.084808 493.548126,366.244690 
	C491.413055,370.733185 491.991302,374.760223 494.131927,379.086121 
	C497.372070,385.633911 500.251556,392.365540 503.102234,399.096100 
	C503.674561,400.447418 504.125427,402.594482 503.462311,403.612518 
	C494.307495,417.666809 489.886749,433.560883 486.130646,449.543060 
	C480.318390,474.274078 475.528992,499.244171 469.872253,524.013916 
	C468.370544,530.589783 465.552155,536.918518 462.873383,543.161255 
	C456.719330,557.502930 451.046936,572.125977 441.185364,584.536560 
	C448.673523,590.400940 454.397583,589.790527 458.759064,581.447815 
	C472.689880,554.800720 486.745636,528.194458 499.730103,501.082458 
	C521.549255,455.523163 542.097046,409.351471 564.185181,363.926361 
	C572.875610,346.054230 584.220093,329.467255 594.483643,312.371643 
	C595.921021,309.977448 597.955627,307.888123 599.948914,305.892456 
	C604.140320,301.696167 607.447510,302.707611 609.586548,308.953491 
	C603.879211,310.319885 603.334656,314.521912 603.100830,319.646027 
	C602.588318,330.877136 606.677429,340.148499 613.886353,348.279358 
	C615.686035,350.309204 616.247925,351.978912 614.905823,354.393768 
	C613.001526,357.820221 613.253906,361.145752 614.985168,364.779144 
	C618.341492,371.823242 621.298462,379.062347 624.249512,386.290619 
	C624.807617,387.657440 625.238403,389.739929 624.599487,390.832031 
	C615.237427,406.835358 610.631348,424.579559 606.208496,442.268036 
	C599.763794,468.042847 594.193359,494.035828 588.143677,519.910889 
	C587.728333,521.687500 586.379883,523.233826 585.546692,524.927307 
	C583.649658,528.783020 581.364868,532.518311 580.024292,536.563171 
	C576.906677,545.969360 574.254211,555.529785 571.268188,565.512695 
	C576.166260,565.512695 580.103027,565.512695 583.560547,565.512695 
	C596.044861,537.846924 608.071716,510.148682 620.954834,482.854645 
	C651.389343,418.376984 682.037720,353.998108 713.067322,289.805328 
	C719.483032,276.532654 727.867615,264.204376 735.495300,251.531433 
	C736.935547,249.138519 738.933289,247.016113 740.945068,245.045837 
	C745.132690,240.944672 748.724792,242.117203 750.680664,248.346664 
	C745.326782,249.514389 744.355591,253.255707 744.092651,258.296509 
	C743.498657,269.684479 747.459656,279.171875 754.756409,287.481171 
	C756.679077,289.670654 757.110596,291.377838 755.535278,293.942993 
	C753.588623,297.112701 753.747009,300.346283 755.484863,303.869537 
	C759.010071,311.016388 762.134705,318.365967 765.242493,325.708954 
	C765.807068,327.042816 766.133484,329.089508 765.509277,330.223297 
	C754.759521,349.749359 748.483765,370.994507 742.222656,392.147278 
	C731.431580,428.604034 721.487305,465.310822 710.962280,501.847748 
	C709.762756,506.011871 706.798889,509.635620 705.211609,513.726624 
	C701.609924,523.009827 698.437378,532.458862 694.902710,541.769165 
	C694.054504,544.003296 692.510986,545.982788 691.222351,548.038635 
	C687.872375,553.383240 684.011719,558.468628 681.212585,564.084961 
	C675.213806,576.121460 669.844116,588.469604 664.055542,600.613220 
	C655.477600,618.608459 643.463013,633.993103 627.983643,646.540283 
	C620.061096,652.962036 611.029968,655.273865 600.545471,654.690735 
	C574.934387,653.266418 549.268799,652.812012 523.622803,652.047791 
	C521.490112,651.984192 519.321533,652.429993 517.200134,652.809387 
	C510.527740,654.002747 504.132111,654.168274 497.205353,652.817383 
	C490.645477,651.538025 483.449127,653.914978 476.524323,653.999756 
	C470.119385,654.078125 463.702240,653.265625 457.292511,652.816833 
	C449.900024,652.299255 442.429169,650.358521 435.297302,654.233765 
	C434.699860,654.558350 433.552277,654.551575 433.006622,654.184265 
	C427.927948,650.765320 422.814819,652.936462 417.623993,653.742615 
	C415.130585,654.129761 412.488220,653.557983 409.479889,653.397339 
	C404.211395,657.252869 398.312866,661.928223 392.049530,666.049194 
	C386.118530,669.951599 383.879700,668.605347 380.890442,662.475952 
	C377.063049,654.627808 372.543671,647.092407 367.939850,639.659241 
	C365.977661,636.491211 362.843079,635.390808 358.800110,636.771118 
	C355.396271,637.933350 351.660553,638.123474 347.184845,638.897278 
	C344.166595,627.542358 340.823456,616.288574 338.368195,604.844177 
	C337.713501,601.792542 339.298279,597.947327 340.669373,594.823975 
	C350.950531,571.404053 360.725220,547.724915 371.991608,524.781494 
	C404.661835,458.250092 437.866089,391.979767 471.229034,325.792572 
	C473.249268,321.784698 478.094757,318.607880 482.350281,316.524414 
	C485.278229,315.090881 488.083862,317.871338 488.806793,321.858429 
	C483.007782,323.161377 482.328369,327.291046 482.102722,332.446930 
	C481.612946,343.637817 485.519623,352.936157 492.920715,361.479004 
z"/>
<path fill="#323338" opacity="1.000000" stroke="none" 
	d="
M1426.998535,403.000671 
	C1421.833374,403.000671 1417.151733,403.234833 1412.506592,402.924133 
	C1409.000366,402.689606 1407.400757,403.981964 1405.808960,407.140991 
	C1384.505615,449.418304 1363.604370,491.914795 1341.385498,533.709473 
	C1318.956543,575.899109 1293.695190,616.433533 1265.294678,654.945129 
	C1262.755371,658.388367 1261.048462,662.448242 1258.980103,666.235535 
	C1232.363770,714.967163 1205.826294,763.742126 1179.061035,812.391846 
	C1174.943359,819.876526 1169.782959,826.787659 1164.085083,833.461548 
	C1163.969604,831.881409 1163.854126,830.301208 1163.655396,827.581604 
	C1156.510864,831.464478 1149.884888,835.065552 1143.549194,838.508850 
	C1138.999268,834.133179 1138.698120,830.457214 1141.651123,825.981567 
	C1144.187500,822.137451 1145.927124,817.767517 1148.080566,813.508179 
	C1141.441528,809.376648 1140.659912,802.278687 1139.227661,795.739868 
	C1137.736450,788.933289 1136.848389,781.964661 1136.203491,775.019836 
	C1135.994141,772.766602 1137.022583,770.183533 1138.092773,768.057434 
	C1174.118042,696.491272 1210.677979,625.189758 1246.137695,553.345032 
	C1268.562988,507.909027 1289.390991,461.615906 1306.046509,413.732300 
	C1317.328613,381.297333 1335.995850,353.071930 1352.398682,323.490570 
	C1353.734985,321.080505 1354.470703,318.334320 1355.455933,315.733093 
	C1360.091064,303.494293 1363.604980,290.678711 1369.563354,279.122986 
	C1384.487427,250.179138 1400.166748,221.603607 1416.417969,193.384125 
	C1419.435669,188.144073 1426.542236,185.258698 1431.566528,181.435150 
	C1433.501709,182.857147 1434.771973,183.790543 1436.388550,184.978363 
	C1432.220581,187.532104 1433.770142,190.999268 1434.551758,194.606277 
	C1435.531494,199.126862 1435.941406,203.770874 1436.740601,209.365570 
	C1439.557983,208.873276 1443.094360,209.224518 1445.363525,207.695404 
	C1456.749390,200.022675 1469.237061,200.442535 1482.157837,200.920349 
	C1511.620605,202.009842 1541.109009,202.513641 1570.591553,202.890915 
	C1578.375366,202.990509 1586.168213,201.601257 1593.972656,201.215149 
	C1597.841187,201.023773 1601.757568,201.429626 1605.631470,201.788956 
	C1614.321167,202.594955 1623.034180,204.901733 1631.583862,200.974258 
	C1632.273193,200.657623 1633.420532,200.395401 1633.914673,200.739685 
	C1639.861816,204.883087 1645.798340,201.434280 1651.745850,200.925125 
	C1653.069824,200.811783 1654.457397,201.440460 1655.745117,202.220871 
	C1668.125854,197.700943 1683.431152,202.687103 1682.905762,212.082428 
	C1667.852051,213.410416 1662.553589,224.324020 1659.089600,237.003937 
	C1658.756958,238.221283 1658.291260,239.590851 1657.442017,240.448990 
	C1650.113403,247.853958 1642.714233,255.190536 1635.249512,262.458466 
	C1634.031128,263.644714 1632.505859,264.898834 1630.922607,265.270416 
	C1601.185425,272.249664 1571.475098,279.362915 1541.634155,285.874664 
	C1525.046631,289.494293 1508.350342,291.512299 1491.214722,287.957428 
	C1481.144287,285.868225 1470.908325,287.981964 1461.889648,293.333832 
	C1454.907349,297.477234 1451.730225,304.025909 1452.083252,312.973083 
	C1466.791138,313.901550 1481.360352,315.382538 1495.948730,315.603699 
	C1515.259399,315.896393 1534.585571,315.239075 1553.903564,314.897064 
	C1556.886108,314.844238 1559.950806,314.646912 1562.820923,313.908020 
	C1571.224121,311.744537 1579.225220,314.979645 1587.424927,315.388275 
	C1592.888306,315.660553 1598.376465,316.645386 1603.456177,313.497864 
	C1604.185669,313.045959 1605.653931,312.820465 1606.232910,313.241974 
	C1611.649414,317.185883 1617.181274,313.336548 1622.545532,313.750214 
	C1631.429321,314.435211 1640.650879,311.017639 1649.237427,315.931519 
	C1652.623169,317.869171 1655.558716,319.753937 1654.855591,324.621155 
	C1640.032593,325.687439 1634.820801,336.452698 1630.952881,348.750519 
	C1630.246704,350.995941 1628.333740,352.970795 1626.667847,354.786041 
	C1620.377563,361.640625 1614.006226,368.423126 1607.549194,375.120605 
	C1606.267090,376.450470 1604.607056,377.868896 1602.894653,378.263672 
	C1572.319580,385.312347 1541.794067,392.618530 1511.071167,398.965240 
	C1495.848389,402.109985 1480.394775,404.127686 1464.616089,400.698334 
	C1459.072754,399.493561 1452.834229,401.636047 1446.899048,402.043945 
	C1440.440552,402.487823 1433.965698,402.691986 1426.998535,403.000671 
z"/>
<path fill="#323338" opacity="1.000000" stroke="none" 
	d="
M1862.157104,907.158875 
	C1875.425415,896.167908 1887.745605,884.724121 1897.598877,870.915833 
	C1904.724487,860.930115 1910.364624,850.312866 1911.135376,837.647278 
	C1911.231934,836.063416 1913.069946,834.343872 1914.476685,833.118591 
	C1929.444336,820.083252 1942.721680,805.701538 1950.118164,786.915039 
	C1952.892212,779.868835 1956.148315,773.486938 1960.759277,767.267944 
	C1966.498779,759.526733 1969.848267,750.020447 1974.305176,741.314941 
	C1975.188354,739.589966 1976.135498,737.743652 1977.518677,736.451599 
	C2005.148926,710.642090 2033.051392,685.120483 2060.456543,659.075256 
	C2077.361572,643.009216 2093.980957,626.589355 2109.891113,609.546326 
	C2123.618408,594.841614 2140.635010,584.689636 2156.531738,572.952026 
	C2161.619629,569.195374 2166.772705,565.507935 2172.083496,562.079651 
	C2175.206299,560.064026 2176.356201,557.731018 2175.521729,555.396484 
	C2153.918457,555.021790 2133.556885,560.261414 2112.939941,564.010498 
	C2086.124756,568.886719 2059.273926,573.717529 2032.277954,577.389893 
	C2017.152832,579.447327 2004.149536,573.338562 1994.652100,561.089783 
	C1987.600342,551.995117 1983.666138,541.515869 1981.656006,530.172058 
	C1980.827026,525.493896 1978.617676,521.076050 1977.428955,516.439209 
	C1976.869629,514.257019 1976.318359,511.252502 1977.350342,509.629333 
	C1981.163818,503.631195 1985.104614,497.546967 1989.969360,492.416565 
	C2002.888794,478.791809 2017.963013,467.525177 2034.252808,458.504395 
	C2060.019287,444.235657 2081.707520,425.022156 2103.585938,405.777344 
	C2151.366455,363.748352 2199.300537,321.873566 2250.442383,283.897583 
	C2260.178467,276.667816 2270.524170,270.244446 2280.738770,263.682465 
	C2284.027344,261.569733 2287.796875,260.205566 2291.646729,258.354675 
	C2292.733643,260.405060 2293.559570,261.962860 2294.086426,262.956390 
	C2288.968262,268.563690 2284.199219,273.788361 2279.151611,279.318268 
	C2280.970215,280.269897 2282.251221,280.698151 2283.225098,281.499664 
	C2285.299316,283.206879 2285.964355,284.805756 2283.494873,287.177155 
	C2278.698730,291.782867 2274.370605,296.871948 2269.697510,301.611694 
	C2267.769531,303.567200 2267.261475,305.284729 2268.879883,307.671783 
	C2271.067871,310.899017 2270.355713,313.696564 2267.717773,316.587036 
	C2262.349121,322.469482 2257.286621,328.631378 2252.163330,334.601929 
	C2252.445557,335.152893 2252.532959,335.494568 2252.745850,335.713715 
	C2257.691650,340.801056 2262.412354,341.437439 2269.211914,337.769104 
	C2275.830078,334.198669 2283.837402,333.202637 2291.234619,331.076141 
	C2291.777588,331.730652 2292.320557,332.385162 2292.863770,333.039673 
	C2291.122070,336.400787 2289.988281,340.315155 2287.525879,343.019897 
	C2279.911377,351.383972 2271.860596,359.357666 2263.835205,367.338226 
	C2260.075928,371.076599 2255.986572,374.483063 2251.747314,378.310150 
	C2255.998535,383.008972 2253.129150,385.940704 2249.782471,389.511230 
	C2227.225830,413.577362 2204.885254,437.845886 2182.500977,462.073425 
	C2181.162842,463.521606 2180.053955,465.181366 2178.815918,466.771729 
	C2186.073242,470.683380 2193.193359,469.511841 2200.520508,467.718872 
	C2228.152832,460.957245 2256.324707,461.111938 2284.462646,462.090240 
	C2295.412598,462.470947 2303.830322,468.651581 2310.059326,477.548126 
	C2316.575684,486.855347 2319.863525,497.487335 2321.922363,508.500153 
	C2322.281494,510.421295 2321.496826,512.778137 2320.648438,514.667847 
	C2314.084717,529.279968 2304.301270,541.674988 2293.445312,553.259399 
	C2269.851074,578.436646 2243.229736,600.242126 2214.385498,618.849670 
	C2163.276611,651.819702 2118.039307,691.816650 2073.856201,733.106018 
	C2021.021729,782.480225 1969.250488,832.996765 1916.157349,882.086975 
	C1900.737671,896.344116 1882.569214,907.698364 1865.272339,919.829163 
	C1854.805664,927.169617 1843.666626,933.569519 1832.676392,940.135559 
	C1828.579468,942.583313 1824.046753,944.301758 1819.231201,946.580688 
	C1818.070190,944.370056 1817.100830,942.524475 1816.387085,941.165527 
	C1831.702393,929.794250 1846.792969,918.589966 1862.157104,907.158875 
z"/>
<path fill="#323338" opacity="1.000000" stroke="none" 
	d="
M1681.455566,522.341431 
	C1683.974121,539.721130 1691.740234,554.079407 1703.711548,565.973633 
	C1722.499756,584.640930 1743.401001,600.531921 1770.348389,604.691406 
	C1815.967285,611.733032 1850.395752,593.396362 1871.313354,552.178955 
	C1880.883667,533.320740 1886.477295,513.146362 1889.697388,492.393585 
	C1891.465454,480.998871 1887.961914,469.877594 1884.335327,459.170380 
	C1880.183228,446.911804 1875.207764,434.932068 1870.586548,422.832520 
	C1870.078613,421.502502 1869.547485,420.181335 1868.579834,417.717926 
	C1873.078613,420.903839 1876.549805,423.362183 1880.021118,425.820496 
	C1880.398804,425.635254 1880.776611,425.449982 1881.154297,425.264709 
	C1880.210449,423.080872 1879.688599,420.557281 1878.250854,418.771057 
	C1871.464478,410.340332 1864.395508,402.137787 1857.509155,393.786438 
	C1856.257568,392.268524 1855.387207,390.436340 1854.340942,388.749268 
	C1854.739136,388.176239 1855.137451,387.603210 1855.535645,387.030182 
	C1858.662354,388.027863 1862.153687,388.438538 1864.856445,390.118195 
	C1882.805786,401.273193 1900.626465,412.637543 1918.360229,424.132446 
	C1920.172363,425.307007 1921.455200,427.640625 1922.435181,429.697662 
	C1926.863403,438.993225 1930.749512,448.561523 1935.481934,457.694244 
	C1941.753052,469.796509 1948.739624,481.526459 1955.151123,493.559021 
	C1956.383545,495.872162 1957.298706,499.028717 1956.806519,501.484894 
	C1949.790039,536.492920 1939.807617,570.520325 1921.932251,601.748718 
	C1902.330811,635.993042 1875.490356,661.976501 1837.347168,674.710083 
	C1810.962280,683.518311 1783.714722,683.827209 1756.321167,682.452087 
	C1726.591309,680.959717 1699.076050,672.587280 1674.365601,655.818054 
	C1646.205688,636.707642 1626.324219,610.460388 1611.097656,580.516541 
	C1605.161987,568.843994 1598.954224,556.965027 1595.511475,544.453369 
	C1590.754150,527.164246 1589.615356,509.462708 1594.655151,491.394745 
	C1604.433472,456.339447 1616.222656,422.241516 1635.560181,391.172058 
	C1660.565918,350.995941 1694.144409,321.462952 1740.559326,308.730774 
	C1775.013184,299.279602 1809.876709,297.218842 1844.432373,308.057831 
	C1877.237549,318.347839 1896.777710,341.737671 1905.420410,374.344269 
	C1907.152832,380.879608 1906.064575,388.265900 1905.599121,395.214417 
	C1905.468140,397.170288 1902.927979,398.964752 1900.825439,401.702057 
	C1899.323608,395.117767 1898.595215,390.177612 1897.054932,385.505157 
	C1892.828857,372.687042 1883.561157,363.963715 1872.583008,356.863037 
	C1871.499268,356.161987 1869.353760,356.219513 1868.109497,356.800110 
	C1862.355347,359.485535 1857.459961,358.892242 1852.488892,354.674561 
	C1849.592407,352.216949 1846.941284,348.327454 1841.987915,349.281433 
	C1841.061768,356.610718 1840.911621,363.428833 1846.353882,369.106476 
	C1849.554688,372.445709 1848.260254,376.204773 1845.918579,379.025970 
	C1844.842285,380.322632 1841.730225,380.441406 1839.613403,380.258728 
	C1834.817993,379.844788 1830.086792,378.588715 1825.291870,378.300537 
	C1821.896118,378.096375 1818.229736,378.298431 1815.042847,379.377991 
	C1793.022827,386.837158 1771.077393,394.519257 1749.167358,402.296722 
	C1746.605957,403.205933 1744.078735,404.783661 1742.088501,406.643127 
	C1713.108032,433.719238 1691.929565,465.600647 1682.815186,504.652466 
	C1681.517334,510.213593 1681.808105,516.145447 1681.455566,522.341431 
z"/>
<path fill="#323338" opacity="1.000000" stroke="none" 
	d="
M115.307274,331.257202 
	C142.607498,318.497437 170.762527,310.474304 200.677750,310.149811 
	C224.048370,309.896301 246.836319,313.099854 267.451447,325.268005 
	C289.064056,338.024933 301.503998,357.622772 307.573883,381.353516 
	C309.134735,387.455811 308.231598,394.308624 307.705170,400.755005 
	C307.535919,402.827118 304.942902,404.701324 302.686005,406.367279 
	C301.217773,387.923462 291.837952,375.084534 277.778961,364.954254 
	C275.144958,363.056335 273.088531,362.503784 270.217346,364.384247 
	C265.987976,367.154205 261.918823,366.674316 257.965698,363.278717 
	C254.659653,360.438934 250.960663,358.056610 246.326477,354.658325 
	C246.005219,362.941498 244.575333,369.463135 249.754425,375.047211 
	C251.880341,377.339355 252.638367,379.911560 251.187714,383.244202 
	C249.713089,386.631805 247.737869,387.679901 244.285431,386.962952 
	C241.033051,386.287567 237.715927,385.930756 234.441238,385.354523 
	C228.458603,384.301849 222.812225,384.676086 216.905075,386.829407 
	C196.785141,394.163605 176.461166,400.937103 156.243195,408.005035 
	C154.415283,408.644073 152.501266,409.553345 151.112091,410.854706 
	C122.955421,437.232239 102.216888,468.105103 92.760918,506.041626 
	C88.428131,523.424377 92.837395,539.077759 102.444275,552.896484 
	C120.310127,578.594971 144.229248,597.185120 175.362625,603.179504 
	C203.934280,608.680725 231.534775,604.984314 254.716232,584.913879 
	C270.163818,571.539368 279.275909,554.088318 285.663727,535.082520 
	C286.676361,532.069641 286.103119,528.523743 286.277435,524.928711 
	C288.159424,524.928711 289.892395,524.928711 292.063171,524.928711 
	C292.063171,527.690308 292.063171,530.451233 292.063171,533.212158 
	C292.571533,533.497559 293.079865,533.782959 293.588226,534.068359 
	C294.385620,533.035767 295.783142,532.060425 295.887909,530.961670 
	C296.975342,519.558105 297.877045,508.136475 298.770294,496.715149 
	C298.922729,494.766235 298.791840,492.795197 298.791840,490.926483 
	C302.956787,489.621277 304.113708,492.483154 304.912750,494.846924 
	C308.737183,506.161041 312.520264,517.497986 315.904633,528.949036 
	C318.349243,537.220520 320.478424,545.621094 322.070831,554.091431 
	C322.727356,557.583496 322.283447,561.639648 321.126740,565.024597 
	C319.696320,569.210693 317.193909,573.085510 314.802795,576.872681 
	C312.471649,580.564819 309.768799,583.937805 313.262878,588.393494 
	C313.710693,588.964539 313.459320,590.290894 313.206207,591.174011 
	C308.616364,607.187866 303.303345,622.932312 294.165497,637.031433 
	C288.711884,645.445923 282.225372,652.710144 271.338531,653.968140 
	C270.435333,654.072510 269.497955,654.718689 268.765076,655.336792 
	C253.172958,668.485840 234.510986,674.264709 214.838699,676.803772 
	C189.636612,680.056458 164.356476,680.346863 139.251724,675.427063 
	C99.216797,667.581543 68.201065,645.770813 44.066372,613.512268 
	C28.198204,592.302734 15.890718,569.010010 8.069267,543.826660 
	C4.592641,532.632690 4.834484,520.184692 4.121849,508.262085 
	C3.526407,498.300171 3.710255,488.262238 4.128780,478.282288 
	C4.320048,473.721375 5.650280,469.147034 6.900248,464.701447 
	C16.466320,430.679077 31.110481,399.355164 54.919975,372.678833 
	C71.629776,353.957062 92.950035,342.254913 115.307274,331.257202 
z"/>
<path fill="#323338" opacity="1.000000" stroke="none" 
	d="
M2928.405029,363.288940 
	C2922.453369,367.435974 2917.409180,366.699127 2912.391602,362.125366 
	C2909.601562,359.582092 2906.218018,357.689636 2902.329102,354.961517 
	C2901.705322,363.611176 2901.057373,370.522797 2906.555908,376.251495 
	C2909.506836,379.325958 2907.949951,382.762726 2905.828369,385.241516 
	C2904.718994,386.537659 2901.850098,386.926208 2899.859619,386.754608 
	C2894.568115,386.298370 2889.339600,385.136902 2884.050049,384.626282 
	C2881.820557,384.411072 2879.372803,384.750519 2877.242676,385.477448 
	C2855.401367,392.931671 2833.597412,400.496216 2811.810303,408.108093 
	C2810.137207,408.692596 2808.426758,409.608734 2807.145264,410.809906 
	C2778.995850,437.192383 2758.244385,468.053223 2748.774170,505.986053 
	C2744.435059,523.366211 2748.822266,539.012329 2758.416260,552.846069 
	C2776.257568,578.572510 2800.190918,597.136597 2831.304932,603.162598 
	C2860.064941,608.732727 2887.811279,604.943726 2911.047852,584.628723 
	C2926.286621,571.306030 2935.310791,553.984497 2941.646729,535.143738 
	C2942.660889,532.127319 2942.104004,528.582397 2942.294434,524.871521 
	C2944.106445,524.782959 2945.839355,524.698242 2947.969971,524.594116 
	C2948.141113,527.780518 2948.297852,530.697388 2948.454590,533.614319 
	C2948.914795,533.857239 2949.375000,534.100159 2949.835205,534.343079 
	C2950.549072,533.240417 2951.785889,532.187012 2951.895020,531.027466 
	C2952.968262,519.622437 2953.875977,508.201569 2954.770264,496.780518 
	C2954.923340,494.827881 2954.791992,492.852966 2954.791992,490.901672 
	C2959.190430,489.641724 2960.225586,492.769257 2961.060303,495.255157 
	C2964.861328,506.575714 2968.610596,517.921875 2971.984375,529.374878 
	C2974.421631,537.648987 2976.521240,546.050110 2978.189209,554.509399 
	C2978.818115,557.698059 2978.630859,561.562317 2977.370850,564.498474 
	C2974.959961,570.116455 2971.427734,575.244629 2968.562988,580.682678 
	C2967.900391,581.940796 2967.349609,584.066467 2967.956299,585.039001 
	C2970.078613,588.441956 2969.277344,591.532898 2968.199951,594.959534 
	C2963.655518,609.415894 2958.749756,623.719666 2950.473633,636.555115 
	C2944.950195,645.121216 2938.495361,652.639954 2927.405518,653.943176 
	C2926.638916,654.033325 2925.811035,654.472046 2925.210205,654.982361 
	C2909.952393,667.939270 2891.740723,673.850220 2872.382568,676.541565 
	C2846.843506,680.092285 2821.221680,680.453369 2795.805420,675.555664 
	C2753.325928,667.369812 2721.157471,643.609436 2696.597900,608.717651 
	C2682.533447,588.736511 2671.186279,567.180664 2664.092041,543.902405 
	C2660.671143,532.677429 2660.840088,520.261169 2660.122803,508.339844 
	C2659.523438,498.378632 2659.841064,488.348724 2660.087402,478.357513 
	C2660.171875,474.934082 2661.038086,471.472687 2661.941650,468.135529 
	C2671.535645,432.711700 2686.363037,400.028564 2711.206299,372.372467 
	C2727.733887,353.973602 2748.671143,342.266907 2770.477783,331.738190 
	C2797.602295,318.641937 2826.088135,310.611359 2856.341797,310.155914 
	C2878.336426,309.824799 2899.864990,312.692596 2919.686768,323.143982 
	C2943.271240,335.579346 2956.974121,355.813080 2963.465088,381.034485 
	C2965.074219,387.288025 2964.146973,394.300720 2963.687744,400.916046 
	C2963.548340,402.922974 2961.066895,404.767242 2959.657959,406.686005 
	C2959.153809,406.452301 2958.649658,406.218597 2958.145752,405.984924 
	C2957.661865,402.785065 2957.400879,399.532410 2956.656738,396.394348 
	C2953.132324,381.536682 2943.420654,371.370605 2931.109131,363.268127 
	C2930.535889,362.890869 2929.547852,363.143951 2928.405029,363.288940 
z"/>
<path fill="#323338" opacity="1.000000" stroke="none" 
	d="
M2612.710693,582.827881 
	C2610.684082,584.543823 2609.075928,586.559387 2607.018555,587.263672 
	C2600.386963,589.533936 2595.612549,594.023254 2591.446533,599.306580 
	C2588.671143,602.826233 2586.187744,606.576050 2583.355225,610.527405 
	C2579.795410,610.069885 2575.954102,609.884094 2572.260254,609.046875 
	C2558.078613,605.832825 2545.431641,612.248596 2532.387451,615.499146 
	C2500.291748,623.497314 2468.201172,631.533142 2435.346680,635.674072 
	C2417.236328,637.956665 2398.939941,640.493652 2380.515625,634.653137 
	C2379.560303,640.133911 2375.984619,641.098145 2371.350830,641.057739 
	C2354.688232,640.912415 2338.021240,641.167419 2321.361816,640.894531 
	C2316.614014,640.816833 2311.636719,640.149597 2307.205811,638.539490 
	C2299.599121,635.775574 2297.585449,628.614929 2301.722412,621.701660 
	C2303.685059,618.422119 2305.645264,615.141357 2307.735352,611.645935 
	C2306.929932,610.701904 2306.144287,609.780762 2304.948486,608.378967 
	C2308.075684,607.186523 2310.818604,606.140564 2314.853271,604.602051 
	C2310.857910,597.830627 2306.886963,591.100952 2302.701416,584.006897 
	C2306.224854,581.297119 2310.201416,578.569214 2313.789307,575.401123 
	C2319.000977,570.799255 2323.893066,565.836670 2329.021240,561.137207 
	C2329.894775,560.336609 2331.228516,559.777954 2332.417480,559.621399 
	C2347.071289,557.691956 2361.692139,555.146729 2376.413818,554.201233 
	C2390.851807,553.273987 2405.402100,554.257751 2419.891113,553.908020 
	C2429.489502,553.676453 2439.068848,552.596619 2448.652100,551.840210 
	C2450.526855,551.692261 2453.041992,549.876404 2452.750732,552.982605 
	C2455.484863,552.298035 2458.205566,551.079163 2460.955322,551.008728 
	C2503.594482,549.917236 2546.234619,548.516296 2588.881348,548.228210 
	C2605.445801,548.116211 2622.038086,550.482117 2638.592529,551.996033 
	C2641.641357,552.274841 2644.639648,553.713684 2647.533203,554.923401 
	C2650.764404,556.274353 2652.514648,558.732178 2651.703613,563.338196 
	C2634.173828,560.031311 2621.603516,567.509033 2612.710693,582.827881 
z"/>
<path fill="#323338" opacity="1.000000" stroke="none" 
	d="
M713.392944,581.405090 
	C718.709229,558.187256 723.871948,535.354431 729.058838,512.527100 
	C729.315247,511.398560 729.609680,510.219055 730.176514,509.229370 
	C744.724182,483.827850 758.977417,458.232727 777.472107,435.362488 
	C779.457092,432.907898 781.909241,430.825867 783.843933,428.337280 
	C786.774719,424.567474 789.795227,424.899200 793.069336,427.656769 
	C801.087402,434.409760 809.262756,440.991425 817.011963,448.040833 
	C820.201477,450.942261 823.299133,452.459381 827.590637,452.060211 
	C830.886719,451.753632 834.234192,451.999146 836.710205,451.999146 
	C840.457092,460.808350 844.225525,469.060516 847.392212,477.537537 
	C848.192322,479.679352 847.730652,482.843170 846.727600,485.020905 
	C838.529053,502.821136 830.725464,520.849792 821.545349,538.141968 
	C801.676331,575.568665 780.843994,612.483215 760.861633,649.851074 
	C753.284607,664.020508 747.033325,678.895203 740.040405,693.382141 
	C736.116821,701.510498 735.990356,701.449463 726.553345,700.748535 
	C726.160706,676.189392 711.359558,657.032471 702.024780,635.851746 
	C700.103638,631.492554 699.658630,628.049500 701.180847,623.372864 
	C705.645630,609.656677 709.282898,595.671204 713.392944,581.405090 
z"/>
<path fill="#323338" opacity="1.000000" stroke="none" 
	d="
M2656.870117,352.899933 
	C2656.055664,357.004395 2653.773926,359.264282 2650.909180,361.840118 
	C2644.633301,367.483521 2639.343506,374.215240 2633.537354,380.395966 
	C2632.385986,381.621796 2630.848389,382.894928 2629.282227,383.260620 
	C2600.666504,389.941925 2572.080078,396.769318 2543.354492,402.947632 
	C2528.268799,406.192291 2513.057617,408.661560 2497.398682,405.298431 
	C2492.156250,404.172485 2486.295654,405.789246 2480.733154,406.316864 
	C2464.211182,407.884064 2448.284180,405.456146 2432.958984,399.189636 
	C2431.024414,398.398560 2429.232666,396.941864 2427.753418,395.424561 
	C2425.376221,392.985992 2424.909668,390.983063 2427.493408,387.468628 
	C2432.277832,380.960724 2436.241455,373.705109 2439.502930,366.301025 
	C2440.626709,363.749634 2438.913818,359.747284 2437.969727,356.564117 
	C2437.428467,354.739624 2435.532471,353.354279 2434.770264,351.549957 
	C2433.402100,348.310455 2433.592529,345.681763 2436.804199,342.891266 
	C2440.423828,339.746368 2442.943848,335.341248 2445.983154,331.517059 
	C2446.522705,330.838135 2447.186279,330.181458 2447.931641,329.761108 
	C2448.935303,329.195190 2450.197266,329.050171 2451.135254,328.411499 
	C2462.445312,320.710236 2475.038574,321.381836 2487.928467,321.916290 
	C2514.556152,323.020233 2541.213135,323.544373 2567.863525,323.881836 
	C2576.312256,323.988800 2584.771240,322.599121 2593.239502,322.188904 
	C2597.095215,322.002167 2600.998779,322.394775 2604.857422,322.764435 
	C2613.217773,323.565216 2621.602539,325.921082 2629.813965,321.946381 
	C2630.482910,321.622559 2631.629639,321.309113 2632.070312,321.638367 
	C2637.652588,325.810455 2643.254395,322.350861 2648.852295,321.880859 
	C2650.062256,321.779236 2651.327881,322.343262 2652.587402,323.168457 
	C2664.810791,318.724731 2679.263672,323.501831 2679.014893,332.733215 
	C2666.509521,333.487579 2660.541016,341.676300 2656.870117,352.899933 
z"/>
<path fill="#323338" opacity="1.000000" stroke="none" 
	d="
M2501.025635,509.094727 
	C2483.942627,512.049072 2467.272705,514.967834 2450.589600,517.809387 
	C2448.969482,518.085388 2446.979004,518.467712 2445.650391,517.810242 
	C2436.387451,513.226807 2427.100830,517.167419 2417.834961,517.400146 
	C2407.684814,517.655212 2397.528320,518.050476 2387.381348,517.913208 
	C2380.257080,517.816895 2373.777588,507.866974 2375.819580,501.087402 
	C2378.536621,492.065857 2381.104980,482.999481 2383.783203,473.794556 
	C2376.428955,471.170441 2375.572266,465.274933 2374.589111,459.523590 
	C2374.447998,458.697662 2374.862061,457.525208 2375.429932,456.867889 
	C2382.866455,448.259460 2390.777344,440.105988 2401.174316,435.085052 
	C2407.411377,432.072998 2413.915527,428.862396 2420.885254,433.615875 
	C2421.372070,433.947845 2422.469482,434.157379 2422.769531,433.876312 
	C2428.139160,428.841858 2433.896240,433.461853 2439.434814,433.211121 
	C2442.720947,433.062317 2446.041504,433.954193 2449.350342,433.985779 
	C2487.823242,434.352814 2526.298828,434.497986 2564.769287,435.033386 
	C2579.080322,435.232513 2593.390625,436.136597 2607.670166,437.157043 
	C2609.638916,437.297729 2611.426514,439.974609 2612.508545,440.843475 
	C2596.397461,458.802002 2580.816406,476.034637 2565.445801,493.453217 
	C2563.227295,495.967468 2561.204102,496.881439 2558.207520,495.676849 
	C2553.159668,493.647736 2548.397217,494.363281 2543.273926,496.070953 
	C2529.425537,500.686951 2515.394043,504.753296 2501.025635,509.094727 
z"/>
<path fill="#323338" opacity="1.000000" stroke="none" 
	d="
M819.049255,409.943817 
	C813.943726,406.460419 809.227722,403.029114 804.299561,399.935822 
	C801.754089,398.338074 800.856079,396.501526 800.869751,393.492462 
	C800.893127,388.327454 800.484741,383.091064 795.018555,379.882538 
	C806.634399,355.517609 818.208191,331.265900 829.759644,307.003540 
	C839.971130,285.555695 850.261475,264.144135 860.262146,242.598282 
	C862.116272,238.603729 864.344910,236.917328 868.574646,238.123810 
	C874.160156,258.108246 887.670959,273.163025 900.346741,288.711609 
	C902.388550,291.216187 903.305786,293.307190 902.517273,296.744629 
	C901.190308,302.529510 900.445618,308.514618 900.183594,314.447601 
	C900.062378,317.192963 901.661560,320.012115 902.466797,322.801819 
	C902.731323,323.718292 903.166504,324.648712 903.161194,325.570679 
	C902.998047,353.803284 899.419739,381.323578 885.544128,406.550934 
	C878.365967,419.601593 868.575134,430.285767 856.342651,437.956818 
	C843.787598,428.514404 831.569214,419.325226 819.049255,409.943817 
z"/>
</svg>